<svg id="book_icon_yellow" data-name="book icon yellow" xmlns="http://www.w3.org/2000/svg" viewBox="0 0 32.83 40">
    <rect id="Rectangle_6" data-name="Rectangle 6" x="6.08" y="3.91" width="22.58" height="1.7" fill="#f7c91e"/>
    <path id="Tracé_1" data-name="Tracé 1"
          d="M32.83,0V37.53a.84.84,0,0,1-.84.85.9.9,0,0,1-.83-.85V1.79H4.67a3,3,0,0,0-3,3v0a3,3,0,0,0,3,3.06H29.49v1.7h0V40H4.25A4.32,4.32,0,0,1,0,35.66V4.34A4.81,4.81,0,0,1,4.67,0ZM7.25,15.32H22.33v-1.7H7.25Zm0,7.4H22.33V21H7.25Z"
          transform="translate(0)" fill="#f7c91e"/>
</svg>
