<svg id="Calque_1" data-name="Calque 1" xmlns="http://www.w3.org/2000/svg" viewBox="0 0 46.5 38.89">
    <g id="dashboard_icon_white" data-name="dashboard icon white">
        <g id="tiks">
            <path id="tik-0" d="M9.74,35.73l-2.49,2.4" transform="translate(0 0.01)" fill="none" stroke="#fff"
                  stroke-linecap="round" stroke-width="1.5"/>
            <path id="tik-1" d="M.83,22.66H4.26" transform="translate(0 0.01)" fill="none" stroke="#fff"
                  stroke-linecap="round" stroke-width="1.5"/>
            <path id="tik-2" d="M9.69,9.48,7.23,7.15" transform="translate(0 0.01)" fill="none" stroke="#fff"
                  stroke-linecap="round" stroke-width="1.5"/>
            <path id="tik-3" d="M23.17,4.05V.78" transform="translate(0 0.01)" fill="none" stroke="#fff"
                  stroke-linecap="round" stroke-width="1.5"/>
            <path id="tik-4" d="M36.71,9.48l2.45-2.33" transform="translate(0 0.01)" fill="none" stroke="#fff"
                  stroke-linecap="round" stroke-width="1.5"/>
            <path id="tik-5" d="M42.26,22.66H45.7" transform="translate(0 0.01)" fill="none" stroke="#fff"
                  stroke-linecap="round" stroke-width="1.5"/>
            <path id="tik-6" d="M36.61,35.73l2.49,2.4" transform="translate(0 0.01)" fill="none" stroke="#fff"
                  stroke-linecap="round" stroke-width="1.5"/>
        </g>
        <path id="outline"
              d="M7.18,38.13A21.54,21.54,0,0,1,.75,22.51,21.92,21.92,0,0,1,22.83.74h.35A22.05,22.05,0,0,1,45.75,22.28v.23a21.35,21.35,0,0,1-6.57,15.62"
              transform="translate(0 0.01)" fill="none" stroke="#fff" stroke-linecap="round" stroke-linejoin="round"
              stroke-width="1.5"/>
        <g id="needle">
            <g id="circle">
                <circle cx="23.08" cy="22.63" r="5.05" fill="none"/>
                <circle cx="23.08" cy="22.63" r="4.43" fill="none" stroke="#fff" stroke-width="1.25"/>
            </g>
            <line id="needle-2" x1="26.32" y1="19.66" x2="30.59" y2="15.41" fill="none" stroke="#fff"
                  stroke-linecap="round" stroke-width="1.25"/>
        </g>
    </g>
</svg>
