<svg id="pencil_icon_white" data-name="pencil icon white" xmlns="http://www.w3.org/2000/svg" viewBox="0 0 6 40.01"><path id="lead" d="M.42,34.51H5.57a.23.23,0,0,1,.18.27.09.09,0,0,1,0,.07s-2.25,4.79-2.25,4.79S3.32,40,3,40s-.48-.36-.48-.36S.26,34.87.27,34.85.26,34.51.42,34.51Z" transform="translate(0 0.01)" fill="#fff"/><path id="body" d="M.38,5.46H5.63c.2,0,.37.25.37.56V32.9c0,.31-.17.56-.37.56H.38c-.21,0-.38-.25-.38-.56V6C0,5.71.17,5.46.38,5.46Z" transform="translate(0 0.01)" fill="#fff"/><path id="eraser" d="M3,0A2.78,2.78,0,0,1,6,2.56c0,.1,0,.21,0,.32V4.16a.32.32,0,0,1-.3.34H.3A.32.32,0,0,1,0,4.16V2.88A2.79,2.79,0,0,1,2.67,0Z" transform="translate(0 0.01)" fill="#fff"/></svg>