<svg xmlns="http://www.w3.org/2000/svg" id="Calque_1" data-name="Calque 1" viewBox="0 0 44.48 40"><g id="robot_icon_white" data-name="robot icon white"><g id="face_outline" data-name="face outline"><rect width="36" height="27" x="4.35" y="13" fill="none" rx="7"/><rect width="34.5" height="25.5" x="5.1" y="13.75" fill="none" stroke="#fff" stroke-width="1.5" rx="6.25"/></g><path id="mouth" fill="none" stroke="#fff" stroke-linecap="round" stroke-width="1.5" d="M17.85,33a5.22,5.22,0,0,0,4.66,2.25c3.42,0,4.34-2.25,4.34-2.25" transform="translate(0)"/><g id="eye_right" data-name="eye right"><circle cx="30.85" cy="23" r="4" fill="none"/><circle cx="30.85" cy="23" r="3.25" fill="none" stroke="#fff" stroke-width="1.5"/></g><g id="eye_left" data-name="eye left"><circle cx="14.85" cy="23" r="4" fill="none"/><circle cx="14.85" cy="23" r="3.25" fill="none" stroke="#fff" stroke-width="1.5"/></g><path id="ear_right" fill="none" stroke="#fff" stroke-linecap="round" stroke-width="1.5" d="M39.75,21.64a4.17,4.17,0,0,1,4,4.31,4.37,4.37,0,0,1-4,4.46" data-name="ear right" transform="translate(0)"/><path id="ear_left" fill="none" stroke="#fff" stroke-linecap="round" stroke-width="1.5" d="M4.72,21.64A4.17,4.17,0,0,0,.75,26a4.37,4.37,0,0,0,4,4.46" data-name="ear left" transform="translate(0)"/><line id="antena" x1="22.35" x2="22.35" y1="13.33" y2="7.33" fill="none" stroke="#fff" stroke-linecap="round" stroke-width="1.5"/><g id="antena_circle" data-name="antena circle"><circle cx="22.35" cy="4" r="4" fill="none"/><circle cx="22.35" cy="4" r="3.25" fill="none" stroke="#fff" stroke-width="1.5"/></g></g></svg>