<svg id="Calque_1" data-name="Calque 1" xmlns="http://www.w3.org/2000/svg" viewBox="0 0 41 41">
    <g id="save_icon_blue" data-name="save icon blue">
        <path id="save_icon_blue-2" data-name="save icon blue-2"
              d="M2.15.5A1.66,1.66,0,0,0,.5,2.15V34.8A1.63,1.63,0,0,0,1,36l4,4a1.74,1.74,0,0,0,1.16.49H38.81a1.69,1.69,0,0,0,1.69-1.69h0V2.15A1.68,1.68,0,0,0,38.81.5ZM31.56,37.25a1.4,1.4,0,0,1-1.22,1.56H10.78a1.41,1.41,0,0,1-1.3-1.5s0,0,0-.06V25.77a1.51,1.51,0,0,1,1.29-1.64H30.31c.76,0,1.25.8,1.25,1.64ZM33.2,15.81a1.64,1.64,0,0,1-1.64,1.64H9.49a1.7,1.7,0,0,1-1.65-1.64V5.17A1.64,1.64,0,0,1,9.48,3.53H31.56A1.66,1.66,0,0,1,33.2,5.17ZM17,35.16v-7.3H13V35.2H17Z"
              transform="translate(0 0)" fill="#2f3e55" stroke="#2f3e55"/>
    </g>
</svg>
