<svg xmlns="http://www.w3.org/2000/svg" width="41.027" height="41.048" viewBox="0 0 41.027 41.048">
    <g id="send_icon_yellow" transform="translate(0.513 0.524)">
        <path id="send_icon_yellow-2" data-name="send_icon_yellow"
              d="M5.043,43.171,8.423,28.54a1.566,1.566,0,0,1,1.334-1.2l18.9-1.957a.472.472,0,0,0,0-.934l-18.9-1.823a1.468,1.468,0,0,1-1.334-1.156L5.043,6.883a1.522,1.522,0,0,1,2.179-1.69l36.956,18.5a1.557,1.557,0,0,1,0,2.757L7.222,44.861A1.522,1.522,0,0,1,5.043,43.171Z"
              transform="translate(-4.997 -5.027)" fill="#f7c91e" stroke="#f7c91e" stroke-width="1"/>
    </g>
</svg>
