<svg id="Calque_1" data-name="Calque 1" xmlns="http://www.w3.org/2000/svg" viewBox="0 0 41.01 41"><g id="send_icon_violet" data-name="send icon violet"><path id="send_icon_violet-2" data-name="send icon violet-2" d="M.56,38.67,3.94,24a1.57,1.57,0,0,1,1.33-1.2l18.9-2a.47.47,0,0,0,.4-.54.47.47,0,0,0-.4-.39L5.27,18.12A1.46,1.46,0,0,1,3.94,17L.56,2.38A1.52,1.52,0,0,1,2.74.69l36.95,18.5a1.55,1.55,0,0,1,.66,2.1,1.61,1.61,0,0,1-.66.66L2.74,40.36A1.52,1.52,0,0,1,.56,38.67Z" transform="translate(-0.02 -0.02)" fill="#4f1ef7" stroke="#4f1ef7"/></g></svg>