<svg id="settings_icon_yellow" data-name="settings icon yellow" xmlns="http://www.w3.org/2000/svg" viewBox="0 0 40.08 40.03"><path id="settings_icon_yellow-2" data-name="settings icon yellow-2" d="M39.72,11.85a4.21,4.21,0,0,0-3.8-2.52,5.86,5.86,0,0,1-4-1.28,5.72,5.72,0,0,1-1.28-4,4.07,4.07,0,0,0-7-2.88A5.81,5.81,0,0,1,20,3.13,5.86,5.86,0,0,1,16.34,1.2,4.23,4.23,0,0,0,11.85.28a4.21,4.21,0,0,0-2.52,3.8,5.84,5.84,0,0,1-1.28,4,6,6,0,0,1-4,1.28,4.22,4.22,0,0,0-3.8,2.52,4.17,4.17,0,0,0,.92,4.44A5.9,5.9,0,0,1,3.12,20,5.85,5.85,0,0,1,1.2,23.66a4.26,4.26,0,0,0-.93,4.49,4.22,4.22,0,0,0,3.8,2.52A5.87,5.87,0,0,1,8,32a5.77,5.77,0,0,1,1.28,4,4.22,4.22,0,0,0,2.52,3.8,4.27,4.27,0,0,0,4.49-.92A5.81,5.81,0,0,1,20,36.87,5.86,5.86,0,0,1,23.7,38.8a4.08,4.08,0,0,0,7-2.89A5.83,5.83,0,0,1,32,32a5.78,5.78,0,0,1,4-1.24,4.09,4.09,0,0,0,2.88-7A5.85,5.85,0,0,1,36.92,20a5.85,5.85,0,0,1,1.92-3.68A4.31,4.31,0,0,0,39.72,11.85ZM23,27.23A7.82,7.82,0,1,1,27.23,17h0A7.81,7.81,0,0,1,23,27.22Z" transform="translate(0.01 0.01)" fill="#f7c91e"/></svg>