<svg xmlns="http://www.w3.org/2000/svg" id="sct_logo_colored_squaredWithoutBackground" data-name="sct logo colored squaredWithoutBackground" viewBox="0 0 209.89 211.81"><g id="subtitle" style="isolation:isolate"><g style="isolation:isolate"><path fill="#2f3e55" d="M31.05,225.85a3,3,0,0,1-.54,1.77A3.47,3.47,0,0,1,29,228.8a5.54,5.54,0,0,1-2.16.41,8.72,8.72,0,0,1-4.12-.94V227.2h.06a4.7,4.7,0,0,0,1.75.9,8.07,8.07,0,0,0,2.28.34,4.14,4.14,0,0,0,2.53-.68,2.23,2.23,0,0,0,.9-1.9,1.55,1.55,0,0,0-.33-1,2.58,2.58,0,0,0-1-.69,14.71,14.71,0,0,0-2.43-.68,9.66,9.66,0,0,1-2.27-.74,2.9,2.9,0,0,1-1.12-1,2.57,2.57,0,0,1-.37-1.42,2.88,2.88,0,0,1,.5-1.64,3.25,3.25,0,0,1,1.4-1.15,4.62,4.62,0,0,1,2-.41,10.24,10.24,0,0,1,1.92.18,9.92,9.92,0,0,1,2,.64v1h-.06a5.27,5.27,0,0,0-1.7-.79,8.35,8.35,0,0,0-2.2-.29,4,4,0,0,0-1.59.3,2.52,2.52,0,0,0-1.06.85,2.05,2.05,0,0,0-.37,1.2,1.73,1.73,0,0,0,.32,1.08,2.47,2.47,0,0,0,.91.72,9.79,9.79,0,0,0,2.07.62c.86.19,1.47.34,1.82.45a5.77,5.77,0,0,1,1,.41,2.72,2.72,0,0,1,.73.54,2.22,2.22,0,0,1,.47.75A2.78,2.78,0,0,1,31.05,225.85Z" transform="translate(-22.72 -20.41)"/><path fill="#2f3e55" d="M34.32,218.73h-1v-1.21h1ZM34.22,229h-.81v-8.7h.81Z" transform="translate(-22.72 -20.41)"/><path fill="#2f3e55" d="M43.58,229H42.8v-5.53c0-1.74-.65-2.61-1.94-2.61a3.5,3.5,0,0,0-1.48.34,4.4,4.4,0,0,0-1.35,1V229h-.8v-8.7H38v1.08a4.42,4.42,0,0,1,1.31-.95,3.43,3.43,0,0,1,1.49-.38,2.84,2.84,0,0,1,1.57.41,2.47,2.47,0,0,1,.93,1.17,5.37,5.37,0,0,1,1.45-1.16,3.32,3.32,0,0,1,1.59-.42,2.58,2.58,0,0,1,2,.82,3.28,3.28,0,0,1,.73,2.26V229h-.79v-5.53c0-1.74-.65-2.61-1.94-2.61a3.5,3.5,0,0,0-1.57.39,4.3,4.3,0,0,0-1.34,1,4.29,4.29,0,0,1,.09.9Z" transform="translate(-22.72 -20.41)"/><path fill="#2f3e55" d="M58.84,224.48a6.45,6.45,0,0,1-.45,2.5,3.6,3.6,0,0,1-1.25,1.65,3.33,3.33,0,0,1-1.9.57,5.33,5.33,0,0,1-1.3-.15,4.67,4.67,0,0,1-1.2-.49v3.66H52V220.3h.79v1.08a6.1,6.1,0,0,1,1.51-1,3.4,3.4,0,0,1,1.37-.34A2.76,2.76,0,0,1,58,221.23,5.53,5.53,0,0,1,58.84,224.48Zm-.82.11a5.31,5.31,0,0,0-.6-2.79,1.93,1.93,0,0,0-1.74-1,3.7,3.7,0,0,0-1.54.34,4.81,4.81,0,0,0-1.4,1v5.52a4.52,4.52,0,0,0,2.53.77,2.35,2.35,0,0,0,2-1.05A4.87,4.87,0,0,0,58,224.59Z" transform="translate(-22.72 -20.41)"/><path fill="#2f3e55" d="M62.09,229h-.8V216.84h.8Z" transform="translate(-22.72 -20.41)"/><path fill="#2f3e55" d="M65.29,224.62a4.24,4.24,0,0,0,.88,2.83,2.93,2.93,0,0,0,2.36,1,5.6,5.6,0,0,0,1.68-.29,4,4,0,0,0,1.31-.65h.07v.9a6.86,6.86,0,0,1-2.88.74A4,4,0,0,1,65.62,228a4.66,4.66,0,0,1-1.1-3.31,5.62,5.62,0,0,1,.49-2.42,3.79,3.79,0,0,1,1.36-1.63,3.57,3.57,0,0,1,2-.58,3.12,3.12,0,0,1,2.45,1.05,4.05,4.05,0,0,1,.93,2.79v.71Zm5.73-.74a3.35,3.35,0,0,0-.71-2.25,2.4,2.4,0,0,0-1.92-.83,2.85,2.85,0,0,0-2.11.86,3.47,3.47,0,0,0-1,2.22Z" transform="translate(-22.72 -20.41)"/><path fill="#2f3e55" d="M84.59,229.2a5.5,5.5,0,0,1-2.85-.74,5,5,0,0,1-1.94-2.12,6.93,6.93,0,0,1-.68-3.14,7,7,0,0,1,.69-3.18,5,5,0,0,1,2-2.11,5.8,5.8,0,0,1,3-.75,8.73,8.73,0,0,1,1.54.14,10.47,10.47,0,0,1,1.39.34,4.35,4.35,0,0,1,1,.42v1.09h-.06a6.3,6.3,0,0,0-1.78-.88,6.49,6.49,0,0,0-2-.33,4.59,4.59,0,0,0-3.55,1.39A5.49,5.49,0,0,0,80,223.2a6.26,6.26,0,0,0,.58,2.79,4.08,4.08,0,0,0,1.63,1.82,4.63,4.63,0,0,0,2.43.63,6.66,6.66,0,0,0,2.16-.31,6.36,6.36,0,0,0,1.84-1h.06v1a6.75,6.75,0,0,1-1.81.8A8.13,8.13,0,0,1,84.59,229.2Z" transform="translate(-22.72 -20.41)"/><path fill="#2f3e55" d="M99.43,229H98.29l-4.13-4.89H91.61V229h-.83V217.37h3a4,4,0,0,1,2.67.83,2.92,2.92,0,0,1,1,2.32,3.51,3.51,0,0,1-.64,2.1A3.27,3.27,0,0,1,95,223.87Zm-2.88-8.49a2.12,2.12,0,0,0-.78-1.77,3.59,3.59,0,0,0-2.23-.61H91.61v5.25h1.84a3.31,3.31,0,0,0,2.32-.73A2.8,2.8,0,0,0,96.55,220.51Z" transform="translate(-22.72 -20.41)"/><path fill="#2f3e55" d="M110.52,229h-.82V217.94l-3.92,7.8h-.51l-3.91-7.8V229h-.77V217.37H102l3.6,7.29,3.61-7.29h1.36Z" transform="translate(-22.72 -20.41)"/><path fill="#2f3e55" d="M122.2,229.2a3.77,3.77,0,0,1-2.64-.92,3.1,3.1,0,0,1-1-2.4,3.43,3.43,0,0,1,.25-1.33,3.09,3.09,0,0,1,.7-1,6.25,6.25,0,0,1,1.37-1,5.13,5.13,0,0,1-1.29-1.41,3,3,0,0,1-.39-1.48,2.5,2.5,0,0,1,.34-1.3,2.37,2.37,0,0,1,1-.91,3.05,3.05,0,0,1,1.44-.32,2.63,2.63,0,0,1,1.83.67,2.22,2.22,0,0,1,.74,1.68,2.72,2.72,0,0,1-.24,1.17,3.08,3.08,0,0,1-.7.92,8.45,8.45,0,0,1-1.52,1l3.48,3.29a6.38,6.38,0,0,0,.29-2.31v-.95h.83v.69a10.58,10.58,0,0,1-.15,1.8,4.5,4.5,0,0,1-.39,1.3l2.66,2.52V229h-1l-2-1.91a4.17,4.17,0,0,1-1.5,1.56A4,4,0,0,1,122.2,229.2Zm-.82-6.21a4.61,4.61,0,0,0-1.53,1.33,2.71,2.71,0,0,0-.43,1.53,2.66,2.66,0,0,0,.34,1.35,2.27,2.27,0,0,0,1,.93,3.32,3.32,0,0,0,1.5.32A3.38,3.38,0,0,0,124,228a3.52,3.52,0,0,0,1.26-1.38Zm2.31-3.45a1.77,1.77,0,0,0-.49-1.28,1.74,1.74,0,0,0-1.31-.5,1.74,1.74,0,0,0-1.87,1.87,3.18,3.18,0,0,0,1.52,2.55,7.26,7.26,0,0,0,1.31-.85,2.59,2.59,0,0,0,.63-.8A2.25,2.25,0,0,0,123.69,219.54Z" transform="translate(-22.72 -20.41)"/><path fill="#2f3e55" d="M143.83,218.15h-4.42V229h-.82V218.15h-4.42v-.78h9.66Z" transform="translate(-22.72 -20.41)"/><path fill="#2f3e55" d="M146.41,218.73h-1v-1.21h1Zm-.1,10.27h-.8v-8.7h.8Z" transform="translate(-22.72 -20.41)"/><path fill="#2f3e55" d="M155.67,229h-.78v-5.53c0-1.74-.65-2.61-1.94-2.61a3.5,3.5,0,0,0-1.48.34,4.25,4.25,0,0,0-1.34,1V229h-.8v-8.7h.8v1.08a4.37,4.37,0,0,1,1.3-.95,3.46,3.46,0,0,1,1.49-.38,2.88,2.88,0,0,1,1.58.41,2.45,2.45,0,0,1,.92,1.17,5.26,5.26,0,0,1,1.46-1.16,3.28,3.28,0,0,1,1.58-.42,2.61,2.61,0,0,1,2,.82,3.28,3.28,0,0,1,.72,2.26V229h-.79v-5.53c0-1.74-.65-2.61-1.94-2.61a3.53,3.53,0,0,0-1.57.39,4.26,4.26,0,0,0-1.33,1,5.11,5.11,0,0,1,.08.9Z" transform="translate(-22.72 -20.41)"/><path fill="#2f3e55" d="M164.23,224.62a4.3,4.3,0,0,0,.88,2.83,3,3,0,0,0,2.37,1,5.6,5.6,0,0,0,1.68-.29,4.06,4.06,0,0,0,1.31-.65h.06v.9a6.82,6.82,0,0,1-2.87.74,4,4,0,0,1-3.09-1.18,4.61,4.61,0,0,1-1.1-3.31,5.78,5.78,0,0,1,.48-2.42,3.81,3.81,0,0,1,1.37-1.63,3.55,3.55,0,0,1,2-.58,3.1,3.1,0,0,1,2.44,1.05,4.05,4.05,0,0,1,.93,2.79v.71Zm5.73-.74a3.35,3.35,0,0,0-.7-2.25,2.4,2.4,0,0,0-1.92-.83,2.83,2.83,0,0,0-2.11.86,3.37,3.37,0,0,0-1,2.22Z" transform="translate(-22.72 -20.41)"/><path fill="#2f3e55" d="M186.93,218.15h-4.41V229h-.82V218.15h-4.43v-.78h9.66Z" transform="translate(-22.72 -20.41)"/><path fill="#2f3e55" d="M192.09,221.34h0a5.16,5.16,0,0,0-1.26-.18,3,3,0,0,0-1.41.35,5.51,5.51,0,0,0-1.42,1.15V229h-.8v-8.7h.8v1.47a6,6,0,0,1,1.45-1.08,3.13,3.13,0,0,1,1.43-.42,3.82,3.82,0,0,1,1.24.18Z" transform="translate(-22.72 -20.41)"/><path fill="#2f3e55" d="M198.72,228.07a5.42,5.42,0,0,1-1.52.91,4.36,4.36,0,0,1-1.47.24,3.06,3.06,0,0,1-2.15-.73,2.77,2.77,0,0,1-.17-3.71,3.89,3.89,0,0,1,1.94-1,16.41,16.41,0,0,1,3.36-.36v-.51a1.86,1.86,0,0,0-.67-1.52,2.81,2.81,0,0,0-1.82-.56,6.15,6.15,0,0,0-2.62.59h0v-.93a6.4,6.4,0,0,1,1.16-.3,7.51,7.51,0,0,1,1.38-.14c2.29,0,3.43,1,3.43,3V229h-.8Zm0-3.95a15.06,15.06,0,0,0-3.06.33,3.08,3.08,0,0,0-1.56.76,1.81,1.81,0,0,0-.49,1.34,2,2,0,0,0,.55,1.45,2,2,0,0,0,1.47.54,4.3,4.3,0,0,0,1.6-.29,5.14,5.14,0,0,0,1.49-.95Z" transform="translate(-22.72 -20.41)"/><path fill="#2f3e55" d="M205.55,229.17a3.41,3.41,0,0,1-2.8-1.19,5.1,5.1,0,0,1-1-3.33,5,5,0,0,1,1-3.32,3.47,3.47,0,0,1,2.82-1.24,6,6,0,0,1,2.67.79v1h-.08a4.69,4.69,0,0,0-2.74-1,2.52,2.52,0,0,0-2.12,1,4.6,4.6,0,0,0-.75,2.82,4.65,4.65,0,0,0,.77,2.82,2.47,2.47,0,0,0,2.08,1,3.78,3.78,0,0,0,1.35-.29,6,6,0,0,0,1.41-.77h.08v.82a3.63,3.63,0,0,1-1.21.63A4.66,4.66,0,0,1,205.55,229.17Z" transform="translate(-22.72 -20.41)"/><path fill="#2f3e55" d="M217.55,229h-1l-4.07-4.4-1.27,1.24V229h-.8V216.84h.8v8.07l4.5-4.61h1L213,224.09Z" transform="translate(-22.72 -20.41)"/><path fill="#2f3e55" d="M219,224.62a4.3,4.3,0,0,0,.88,2.83,3,3,0,0,0,2.37,1,5.6,5.6,0,0,0,1.68-.29,4.06,4.06,0,0,0,1.31-.65h.06v.9a6.82,6.82,0,0,1-2.87.74,4,4,0,0,1-3.09-1.18,4.61,4.61,0,0,1-1.1-3.31,5.78,5.78,0,0,1,.48-2.42,3.74,3.74,0,0,1,1.37-1.63,3.52,3.52,0,0,1,2-.58,3.11,3.11,0,0,1,2.44,1.05,4.05,4.05,0,0,1,.93,2.79v.71Zm5.73-.74a3.35,3.35,0,0,0-.7-2.25,2.4,2.4,0,0,0-1.92-.83,2.83,2.83,0,0,0-2.11.86,3.43,3.43,0,0,0-1,2.22Z" transform="translate(-22.72 -20.41)"/><path fill="#2f3e55" d="M232.61,221.34h0a5.16,5.16,0,0,0-1.26-.18,3.07,3.07,0,0,0-1.42.35,5.51,5.51,0,0,0-1.42,1.15V229h-.79v-8.7h.79v1.47a5.88,5.88,0,0,1,1.46-1.08,3.1,3.1,0,0,1,1.43-.42,3.8,3.8,0,0,1,1.23.18Z" transform="translate(-22.72 -20.41)"/></g></g><g id="Sct_" data-name="Sct" style="isolation:isolate"><g style="isolation:isolate"><path fill="#2f3e55" d="M99.48,177.47a10.26,10.26,0,0,1-1.64,5.72,10.84,10.84,0,0,1-4.79,4,18,18,0,0,1-7.49,1.44,17,17,0,0,1-8.57-2,11.5,11.5,0,0,1-3.89-3.77,8.6,8.6,0,0,1-1.49-4.58,3.09,3.09,0,0,1,3.18-3.14,2.69,2.69,0,0,1,1.9.72A5.69,5.69,0,0,1,78,178a14.24,14.24,0,0,0,1.45,2.8,5.82,5.82,0,0,0,2.19,1.85,8,8,0,0,0,3.71.73,8.39,8.39,0,0,0,5.13-1.47,4.43,4.43,0,0,0,2-3.67,3.89,3.89,0,0,0-1.06-2.84,6.92,6.92,0,0,0-2.75-1.66c-1.13-.38-2.63-.79-4.51-1.22a32.86,32.86,0,0,1-6.33-2.07,10.3,10.3,0,0,1-4-3.23,8.42,8.42,0,0,1-1.49-5.08A8.7,8.7,0,0,1,73.86,157a9.86,9.86,0,0,1,4.57-3.45,18.61,18.61,0,0,1,7-1.21,17.28,17.28,0,0,1,5.59.8A11.68,11.68,0,0,1,95,155.26,8.81,8.81,0,0,1,97.23,158a6.46,6.46,0,0,1,.72,2.85,3.37,3.37,0,0,1-.9,2.29,2.83,2.83,0,0,1-2.23,1,2.56,2.56,0,0,1-1.86-.61,8.08,8.08,0,0,1-1.37-2,9.06,9.06,0,0,0-2.3-3.1A6.73,6.73,0,0,0,85,157.38a7.52,7.52,0,0,0-4.44,1.2,3.53,3.53,0,0,0-1.68,2.91,3,3,0,0,0,.57,1.82A4.86,4.86,0,0,0,81,164.63a11.43,11.43,0,0,0,2,.86c.69.2,1.82.51,3.4.9a54.31,54.31,0,0,1,5.37,1.54,15.77,15.77,0,0,1,4.09,2,8.37,8.37,0,0,1,2.64,3A9.67,9.67,0,0,1,99.48,177.47Z" transform="translate(-22.72 -20.41)"/><path fill="#2f3e55" d="M135.39,176.92a9.35,9.35,0,0,1-.82,3.63,13.32,13.32,0,0,1-7.12,6.88A16.26,16.26,0,0,1,121,188.6a22.5,22.5,0,0,1-5.05-.53,13.53,13.53,0,0,1-7.54-4.57,17.91,17.91,0,0,1-2.37-3.69,19.71,19.71,0,0,1-1.47-4.37,24.31,24.31,0,0,1-.49-4.93,21.64,21.64,0,0,1,1.24-7.58,16,16,0,0,1,3.52-5.73,15.46,15.46,0,0,1,5.39-3.63,17.42,17.42,0,0,1,6.58-1.24,16.33,16.33,0,0,1,7.58,1.7,13.74,13.74,0,0,1,5.1,4.19A8.32,8.32,0,0,1,135.3,163a3.09,3.09,0,0,1-.86,2.15,2.76,2.76,0,0,1-2.08.94,2.88,2.88,0,0,1-2.05-.65,9.11,9.11,0,0,1-1.52-2.22,10.56,10.56,0,0,0-3.27-3.9,7.89,7.89,0,0,0-4.62-1.3,8.39,8.39,0,0,0-7,3.33q-2.6,3.33-2.6,9.45a17.66,17.66,0,0,0,1.15,6.81,8.56,8.56,0,0,0,3.26,4.05,9,9,0,0,0,4.93,1.34,8.62,8.62,0,0,0,5.18-1.52A9.18,9.18,0,0,0,129,177a7.56,7.56,0,0,1,1.12-2.26,2.56,2.56,0,0,1,2.16-.87,3,3,0,0,1,2.17.88A2.93,2.93,0,0,1,135.39,176.92Z" transform="translate(-22.72 -20.41)"/><path fill="#2f3e55" d="M164.56,158.79h-7.75v25.48a4.69,4.69,0,0,1-1,3.26,3.57,3.57,0,0,1-5.11,0,4.66,4.66,0,0,1-1-3.25V158.79H142a3.94,3.94,0,0,1-2.7-.8,2.73,2.73,0,0,1-.89-2.12,2.69,2.69,0,0,1,.93-2.16,4,4,0,0,1,2.66-.79h22.59a4,4,0,0,1,2.74.82,2.95,2.95,0,0,1,0,4.25A4.06,4.06,0,0,1,164.56,158.79Z" transform="translate(-22.72 -20.41)"/><path fill="#2f3e55" d="M182.89,170.7H172.5a2.75,2.75,0,0,1-1.89-.6,1.84,1.84,0,0,1-.67-1.41,2.66,2.66,0,0,1,.6-1.64,10,10,0,0,1,1.56-1.56c.63-.53,1.6-1.29,2.89-2.28l1.95-1.35a14.74,14.74,0,0,0,2.51-2,2.65,2.65,0,0,0,.73-1.8,2,2,0,0,0-.8-1.66,3.29,3.29,0,0,0-2.07-.61,3.19,3.19,0,0,0-2,.52,4.76,4.76,0,0,0-1.17,1.57,6.27,6.27,0,0,1-.9,1.46,1.75,1.75,0,0,1-1.34.42,2,2,0,0,1-1.36-.49,1.65,1.65,0,0,1-.55-1.3,4.28,4.28,0,0,1,.81-2.39,6,6,0,0,1,2.49-2,9.58,9.58,0,0,1,4.12-.79c2.44,0,4.26.5,5.45,1.52a4.66,4.66,0,0,1,1.8,3.69,4.83,4.83,0,0,1-1.41,3.46,24.66,24.66,0,0,1-4,3.21,19.91,19.91,0,0,0-3.38,2.59h6.63a3.19,3.19,0,0,1,1.87.47A1.49,1.49,0,0,1,185,169a1.64,1.64,0,0,1-.54,1.21A2.19,2.19,0,0,1,182.89,170.7Z" transform="translate(-22.72 -20.41)"/></g></g><g id="Growth"><path id="mountain-2" fill="#fff" d="M34.17,132.81l58.1-64.32,20.88,24.62L165.7,33.5l31.14,51.1,27.93,25.63L196.84,96.31l-10.52,11.48L165.7,43.58l-16.41,26.5-22,14.53v16.57l-7.92,15.12L95.14,90.52l-9.64,22L78,100Z" transform="translate(-22.72 -20.41)"/><g id="arrow"><line id="_4" x1="8.44" x2="69.45" y1="112.87" y2="45.91" fill="none" stroke="#2f3e55" stroke-linecap="round" stroke-width="7" data-name="4"/><line id="_5" x1="90.29" x2="69.45" y1="71.2" y2="45.91" fill="none" stroke="#2f3e55" stroke-linecap="round" stroke-width="7" data-name="5"/><line id="_6" x1="90.28" x2="148.31" y1="71.2" y2="3.5" fill="none" stroke="#2f3e55" stroke-linecap="round" stroke-width="7" data-name="6"/><line id="_7" x1="148.31" x2="148.31" y1="14.66" y2="3.5" fill="none" stroke="#2f3e55" stroke-linecap="round" stroke-width="7" data-name="7"/><line id="_8" x1="136.41" x2="148.31" y1="7.22" y2="3.5" fill="none" stroke="#2f3e55" stroke-linecap="round" stroke-width="7" data-name="8"/></g></g></svg>