<svg id="Calque_1" data-name="Calque 1" xmlns="http://www.w3.org/2000/svg" viewBox="0 0 209.89 211.81"><g id="sct_logo_colored_squaredWithoutBackgroundInverted" data-name="sct logo colored squaredWithoutBackgroundInverted"><g id="subtitle" style="isolation:isolate"><g style="isolation:isolate"><path d="M13.83,212.88a3,3,0,0,1-.54,1.77,3.44,3.44,0,0,1-1.5,1.18,5.63,5.63,0,0,1-2.17.41,8.75,8.75,0,0,1-4.12-.94v-1.07h.06a4.7,4.7,0,0,0,1.75.9,8.07,8.07,0,0,0,2.28.34,4.17,4.17,0,0,0,2.54-.68,2.25,2.25,0,0,0,.89-1.9,1.55,1.55,0,0,0-.33-1,2.58,2.58,0,0,0-1-.69,14.71,14.71,0,0,0-2.43-.68A9.82,9.82,0,0,1,7,209.77a3,3,0,0,1-1.12-1,2.57,2.57,0,0,1-.37-1.42,2.88,2.88,0,0,1,.5-1.64,3.25,3.25,0,0,1,1.4-1.15,4.63,4.63,0,0,1,2-.41,10.13,10.13,0,0,1,1.91.18,9.92,9.92,0,0,1,2,.64v1h-.06a5.27,5.27,0,0,0-1.7-.79,8.35,8.35,0,0,0-2.2-.29,4,4,0,0,0-1.59.3,2.58,2.58,0,0,0-1.06.85,2.05,2.05,0,0,0-.37,1.2,1.73,1.73,0,0,0,.32,1.08,2.47,2.47,0,0,0,.91.72,9.79,9.79,0,0,0,2.07.62q1.29.28,1.83.45a6,6,0,0,1,1,.41,2.72,2.72,0,0,1,.73.54,2.22,2.22,0,0,1,.47.75A2.78,2.78,0,0,1,13.83,212.88Z" transform="translate(-5.5 -7.44)" fill="#2f3e55"/><path d="M17.1,205.76h-1v-1.21h1ZM17,216h-.8v-8.7H17Z" transform="translate(-5.5 -7.44)" fill="#2f3e55"/><path d="M26.36,216h-.78V210.5c0-1.74-.65-2.61-1.94-2.61a3.5,3.5,0,0,0-1.48.34,4.4,4.4,0,0,0-1.35,1V216H20v-8.7h.79v1.08a4.42,4.42,0,0,1,1.31-.95,3.43,3.43,0,0,1,1.49-.38,2.76,2.76,0,0,1,1.57.42,2.39,2.39,0,0,1,.93,1.16,5.37,5.37,0,0,1,1.45-1.16,3.32,3.32,0,0,1,1.59-.42,2.58,2.58,0,0,1,2,.82,3.23,3.23,0,0,1,.73,2.26V216h-.79V210.5c0-1.74-.65-2.61-1.94-2.61a3.5,3.5,0,0,0-1.57.39,4.3,4.3,0,0,0-1.34,1,4.29,4.29,0,0,1,.09.9Z" transform="translate(-5.5 -7.44)" fill="#2f3e55"/><path d="M41.62,211.51a6.64,6.64,0,0,1-.44,2.5,3.69,3.69,0,0,1-1.26,1.65,3.25,3.25,0,0,1-1.9.57,5.33,5.33,0,0,1-1.3-.15,4.67,4.67,0,0,1-1.2-.49v3.66h-.79V207.33h.79v1.08a6.1,6.1,0,0,1,1.51-1,3.4,3.4,0,0,1,1.37-.34,2.76,2.76,0,0,1,2.37,1.18A5.45,5.45,0,0,1,41.62,211.51Zm-.82.11a5.31,5.31,0,0,0-.6-2.79,1.93,1.93,0,0,0-1.74-1,3.73,3.73,0,0,0-1.54.34,4.94,4.94,0,0,0-1.4,1v5.52a4.76,4.76,0,0,0,1.13.55,4.61,4.61,0,0,0,1.4.22,2.35,2.35,0,0,0,2-1.05A4.79,4.79,0,0,0,40.8,211.62Z" transform="translate(-5.5 -7.44)" fill="#2f3e55"/><path d="M44.87,216h-.8V203.87h.8Z" transform="translate(-5.5 -7.44)" fill="#2f3e55"/><path d="M48.07,211.65a4.24,4.24,0,0,0,.88,2.83,2.94,2.94,0,0,0,2.36,1,5.71,5.71,0,0,0,1.69-.29,4,4,0,0,0,1.3-.65h.07v.9a6.83,6.83,0,0,1-2.88.74A4,4,0,0,1,48.4,215a4.66,4.66,0,0,1-1.1-3.31,5.78,5.78,0,0,1,.49-2.42,3.79,3.79,0,0,1,1.36-1.63,3.57,3.57,0,0,1,2-.58,3.12,3.12,0,0,1,2.45,1.05,4.05,4.05,0,0,1,.93,2.79v.71Zm5.73-.74a3.35,3.35,0,0,0-.71-2.25,2.38,2.38,0,0,0-1.92-.83,2.87,2.87,0,0,0-2.11.86,3.47,3.47,0,0,0-1,2.22Z" transform="translate(-5.5 -7.44)" fill="#2f3e55"/><path d="M67.37,216.23a5.53,5.53,0,0,1-2.85-.74,5,5,0,0,1-1.94-2.12,7.63,7.63,0,0,1,0-6.32,5,5,0,0,1,2-2.11,5.8,5.8,0,0,1,3-.75,8.65,8.65,0,0,1,1.54.14,10.47,10.47,0,0,1,1.39.34,4.35,4.35,0,0,1,1,.42v1.09h-.06a6.17,6.17,0,0,0-1.78-.88,6.47,6.47,0,0,0-2-.33A4.57,4.57,0,0,0,64,206.36a5.47,5.47,0,0,0-1.29,3.87,6.26,6.26,0,0,0,.58,2.79A4.08,4.08,0,0,0,65,214.84a4.63,4.63,0,0,0,2.43.63,6.66,6.66,0,0,0,2.16-.31,6.36,6.36,0,0,0,1.84-1h.06v1a6.75,6.75,0,0,1-1.81.8A8.08,8.08,0,0,1,67.37,216.23Z" transform="translate(-5.5 -7.44)" fill="#2f3e55"/><path d="M82.21,216H81.07l-4.13-4.89H74.39V216h-.83V204.4h3a4,4,0,0,1,2.67.83,2.92,2.92,0,0,1,1,2.32,3.51,3.51,0,0,1-.64,2.1,3.27,3.27,0,0,1-1.78,1.25Zm-2.88-8.49a2.12,2.12,0,0,0-.78-1.77,3.59,3.59,0,0,0-2.23-.61H74.39v5.25h1.84a3.31,3.31,0,0,0,2.32-.73A2.8,2.8,0,0,0,79.33,207.54Z" transform="translate(-5.5 -7.44)" fill="#2f3e55"/><path d="M93.3,216h-.82V205l-3.92,7.8h-.51L84.14,205V216h-.76V204.4h1.35l3.6,7.29,3.61-7.29H93.3Z" transform="translate(-5.5 -7.44)" fill="#2f3e55"/><path d="M105,216.23a3.79,3.79,0,0,1-2.64-.92,3.09,3.09,0,0,1-1-2.4,3.43,3.43,0,0,1,.24-1.33,3.09,3.09,0,0,1,.7-1,6.25,6.25,0,0,1,1.37-1,5.13,5.13,0,0,1-1.29-1.41,3,3,0,0,1-.39-1.48,2.5,2.5,0,0,1,.34-1.3,2.37,2.37,0,0,1,1-.91,3.05,3.05,0,0,1,1.44-.32,2.63,2.63,0,0,1,1.83.67,2.22,2.22,0,0,1,.74,1.68,2.72,2.72,0,0,1-.24,1.17,3.08,3.08,0,0,1-.7.92,8.68,8.68,0,0,1-1.51,1l3.47,3.29a6.38,6.38,0,0,0,.29-2.31v-.95h.83v.69a10.58,10.58,0,0,1-.15,1.8,4.21,4.21,0,0,1-.39,1.3l2.66,2.52V216h-1l-2-1.91a4.17,4.17,0,0,1-1.5,1.56A4,4,0,0,1,105,216.23Zm-.82-6.21a4.61,4.61,0,0,0-1.53,1.33,2.79,2.79,0,0,0-.43,1.53,2.66,2.66,0,0,0,.34,1.35,2.27,2.27,0,0,0,1,.93,3.32,3.32,0,0,0,1.5.32,3.28,3.28,0,0,0,3-1.85Zm2.31-3.45a1.7,1.7,0,0,0-1.8-1.78,1.74,1.74,0,0,0-1.87,1.87,3.16,3.16,0,0,0,1.52,2.55,7.26,7.26,0,0,0,1.31-.85,2.48,2.48,0,0,0,.63-.8A2.25,2.25,0,0,0,106.47,206.57Z" transform="translate(-5.5 -7.44)" fill="#2f3e55"/><path d="M126.61,205.18H122.2V216h-.82V205.18H117v-.78h9.66Z" transform="translate(-5.5 -7.44)" fill="#2f3e55"/><path d="M129.2,205.76h-1v-1.21h1ZM129.09,216h-.8v-8.7h.8Z" transform="translate(-5.5 -7.44)" fill="#2f3e55"/><path d="M138.45,216h-.78V210.5c0-1.74-.64-2.61-1.94-2.61a3.5,3.5,0,0,0-1.48.34,4.25,4.25,0,0,0-1.34,1V216h-.8v-8.7h.8v1.08a4.37,4.37,0,0,1,1.3-.95,3.46,3.46,0,0,1,1.49-.38,2.8,2.8,0,0,1,1.58.42,2.38,2.38,0,0,1,.92,1.16,5.26,5.26,0,0,1,1.46-1.16,3.31,3.31,0,0,1,1.58-.42,2.61,2.61,0,0,1,2,.82,3.28,3.28,0,0,1,.72,2.26V216h-.79V210.5c0-1.74-.65-2.61-1.94-2.61a3.53,3.53,0,0,0-1.57.39,4.26,4.26,0,0,0-1.33,1,5.11,5.11,0,0,1,.08.9Z" transform="translate(-5.5 -7.44)" fill="#2f3e55"/><path d="M147,211.65a4.29,4.29,0,0,0,.87,2.83,3,3,0,0,0,2.37,1,5.6,5.6,0,0,0,1.68-.29,4.06,4.06,0,0,0,1.31-.65h.06v.9a6.82,6.82,0,0,1-2.87.74,4,4,0,0,1-3.09-1.18,4.66,4.66,0,0,1-1.1-3.31,5.78,5.78,0,0,1,.48-2.42,3.81,3.81,0,0,1,1.37-1.63,3.55,3.55,0,0,1,2-.58,3.1,3.1,0,0,1,2.44,1.05,4.05,4.05,0,0,1,.93,2.79v.71Zm5.72-.74a3.35,3.35,0,0,0-.7-2.25,2.4,2.4,0,0,0-1.92-.83,2.83,2.83,0,0,0-2.11.86,3.47,3.47,0,0,0-1,2.22Z" transform="translate(-5.5 -7.44)" fill="#2f3e55"/><path d="M169.71,205.18H165.3V216h-.82V205.18h-4.43v-.78h9.66Z" transform="translate(-5.5 -7.44)" fill="#2f3e55"/><path d="M174.87,208.37h0a5,5,0,0,0-1.25-.18,3,3,0,0,0-1.42.35,5.51,5.51,0,0,0-1.42,1.15V216H170v-8.7h.8v1.47a6,6,0,0,1,1.45-1.08,3.13,3.13,0,0,1,1.43-.42,3.82,3.82,0,0,1,1.24.18Z" transform="translate(-5.5 -7.44)" fill="#2f3e55"/><path d="M181.5,215.1A5.42,5.42,0,0,1,180,216a4.32,4.32,0,0,1-1.47.24,3.06,3.06,0,0,1-2.15-.73,2.77,2.77,0,0,1-.17-3.71,3.89,3.89,0,0,1,1.94-1,16.41,16.41,0,0,1,3.36-.36V210a1.86,1.86,0,0,0-.67-1.52,2.79,2.79,0,0,0-1.82-.56,6.15,6.15,0,0,0-2.62.59h0v-.93a6.05,6.05,0,0,1,1.15-.3,7.53,7.53,0,0,1,1.39-.14c2.28,0,3.42,1,3.42,3V216h-.8Zm0-3.95a15.06,15.06,0,0,0-3.06.33,3.08,3.08,0,0,0-1.56.76,1.81,1.81,0,0,0-.49,1.34,2,2,0,0,0,.55,1.45,2,2,0,0,0,1.47.54,4.3,4.3,0,0,0,1.6-.29,5.14,5.14,0,0,0,1.49-.95Z" transform="translate(-5.5 -7.44)" fill="#2f3e55"/><path d="M188.34,216.2a3.39,3.39,0,0,1-2.8-1.19,6,6,0,0,1,.05-6.65,3.47,3.47,0,0,1,2.82-1.24,6,6,0,0,1,2.67.79v1H191a4.68,4.68,0,0,0-2.73-1,2.53,2.53,0,0,0-2.13,1,4.6,4.6,0,0,0-.75,2.82,4.65,4.65,0,0,0,.77,2.82,2.47,2.47,0,0,0,2.08,1,3.78,3.78,0,0,0,1.35-.29,6,6,0,0,0,1.41-.77h.08v.82a3.67,3.67,0,0,1-1.2.63A4.75,4.75,0,0,1,188.34,216.2Z" transform="translate(-5.5 -7.44)" fill="#2f3e55"/><path d="M200.33,216h-1l-4.08-4.4L194,212.87V216h-.79V203.87H194v8.07l4.5-4.61h1l-3.73,3.79Z" transform="translate(-5.5 -7.44)" fill="#2f3e55"/><path d="M201.8,211.65a4.3,4.3,0,0,0,.88,2.83,3,3,0,0,0,2.37,1,5.6,5.6,0,0,0,1.68-.29,4.06,4.06,0,0,0,1.31-.65h.06v.9a6.82,6.82,0,0,1-2.87.74,4,4,0,0,1-3.09-1.18,4.61,4.61,0,0,1-1.1-3.31,5.78,5.78,0,0,1,.48-2.42,3.81,3.81,0,0,1,1.37-1.63,3.55,3.55,0,0,1,2-.58,3.1,3.1,0,0,1,2.44,1.05,4.05,4.05,0,0,1,.93,2.79v.71Zm5.73-.74a3.35,3.35,0,0,0-.7-2.25,2.4,2.4,0,0,0-1.92-.83,2.83,2.83,0,0,0-2.11.86,3.37,3.37,0,0,0-1,2.22Z" transform="translate(-5.5 -7.44)" fill="#2f3e55"/><path d="M215.39,208.37h0a5.16,5.16,0,0,0-1.26-.18,3.07,3.07,0,0,0-1.42.35,5.68,5.68,0,0,0-1.42,1.15V216h-.79v-8.7h.79v1.47a6.07,6.07,0,0,1,1.46-1.08,3.1,3.1,0,0,1,1.43-.42,3.8,3.8,0,0,1,1.23.18Z" transform="translate(-5.5 -7.44)" fill="#2f3e55"/></g></g><g id="Sct_" data-name="Sct " style="isolation:isolate"><g style="isolation:isolate"><path d="M82.26,164.5a10.26,10.26,0,0,1-1.64,5.72,10.84,10.84,0,0,1-4.79,4,18,18,0,0,1-7.49,1.44,17,17,0,0,1-8.57-2,11.5,11.5,0,0,1-3.89-3.77,8.6,8.6,0,0,1-1.49-4.58,3.11,3.11,0,0,1,3.18-3.14,2.68,2.68,0,0,1,1.9.72A5.69,5.69,0,0,1,60.8,165a14.24,14.24,0,0,0,1.45,2.8,5.82,5.82,0,0,0,2.19,1.85,8.05,8.05,0,0,0,3.71.73,8.39,8.39,0,0,0,5.13-1.47,4.43,4.43,0,0,0,2-3.67,3.89,3.89,0,0,0-1.06-2.84,6.92,6.92,0,0,0-2.75-1.66c-1.13-.38-2.63-.79-4.51-1.22a33.09,33.09,0,0,1-6.33-2.07,10.3,10.3,0,0,1-4.05-3.23,8.42,8.42,0,0,1-1.49-5.08A8.7,8.7,0,0,1,56.64,144a9.86,9.86,0,0,1,4.57-3.45,18.61,18.61,0,0,1,7-1.21,17.23,17.23,0,0,1,5.59.8,11.68,11.68,0,0,1,3.91,2.13A8.6,8.6,0,0,1,80,145.08a6.39,6.39,0,0,1,.72,2.84,3.37,3.37,0,0,1-.9,2.29,2.83,2.83,0,0,1-2.23,1,2.57,2.57,0,0,1-1.86-.61,8.08,8.08,0,0,1-1.37-2,9.06,9.06,0,0,0-2.3-3.1,6.73,6.73,0,0,0-4.31-1.11,7.47,7.47,0,0,0-4.43,1.2,3.52,3.52,0,0,0-1.69,2.91,3,3,0,0,0,.57,1.82,5,5,0,0,0,1.58,1.32,11.22,11.22,0,0,0,2,.86c.68.2,1.81.51,3.39.9A54.31,54.31,0,0,1,74.59,155a16,16,0,0,1,4.1,2,8.44,8.44,0,0,1,2.63,3A9.67,9.67,0,0,1,82.26,164.5Z" transform="translate(-5.5 -7.44)" fill="#2f3e55"/><path d="M118.17,164a9.35,9.35,0,0,1-.82,3.63,13.32,13.32,0,0,1-7.12,6.88,16.26,16.26,0,0,1-6.41,1.17,22.5,22.5,0,0,1-5-.53,13.53,13.53,0,0,1-7.54-4.57,17.47,17.47,0,0,1-2.36-3.69,19.23,19.23,0,0,1-1.48-4.37,24.31,24.31,0,0,1-.49-4.93A21.64,21.64,0,0,1,88.14,150a15.91,15.91,0,0,1,3.53-5.73,15.33,15.33,0,0,1,5.38-3.63,17.42,17.42,0,0,1,6.58-1.24,16.3,16.3,0,0,1,7.58,1.7,13.74,13.74,0,0,1,5.1,4.19,8.32,8.32,0,0,1,1.77,4.73,3.09,3.09,0,0,1-.86,2.15,2.76,2.76,0,0,1-2.08.94,2.9,2.9,0,0,1-2-.65,9.11,9.11,0,0,1-1.52-2.22,10.64,10.64,0,0,0-3.26-3.9,7.94,7.94,0,0,0-4.63-1.3,8.39,8.39,0,0,0-7,3.33q-2.6,3.33-2.59,9.45a17.67,17.67,0,0,0,1.14,6.81,8.56,8.56,0,0,0,3.26,4,8.9,8.9,0,0,0,4.93,1.34,8.6,8.6,0,0,0,5.18-1.52,9.18,9.18,0,0,0,3.19-4.46,7.45,7.45,0,0,1,1.13-2.26,2.53,2.53,0,0,1,2.15-.87,3,3,0,0,1,2.18.88A3,3,0,0,1,118.17,164Z" transform="translate(-5.5 -7.44)" fill="#2f3e55"/><path d="M147.34,145.82h-7.75V171.3a4.69,4.69,0,0,1-1,3.26,3.57,3.57,0,0,1-5.11,0,4.66,4.66,0,0,1-1-3.25V145.82h-7.76a3.94,3.94,0,0,1-2.7-.8,2.73,2.73,0,0,1-.88-2.12,2.65,2.65,0,0,1,.92-2.15,4,4,0,0,1,2.66-.79h22.59a4,4,0,0,1,2.74.81,2.95,2.95,0,0,1,0,4.25A4.06,4.06,0,0,1,147.34,145.82Z" transform="translate(-5.5 -7.44)" fill="#2f3e55"/><path d="M165.67,157.73H155.28a2.75,2.75,0,0,1-1.89-.6,1.84,1.84,0,0,1-.67-1.41,2.66,2.66,0,0,1,.6-1.64,10,10,0,0,1,1.56-1.56c.63-.53,1.6-1.29,2.89-2.28l1.95-1.35a14.74,14.74,0,0,0,2.51-2,2.63,2.63,0,0,0,.73-1.8,2,2,0,0,0-.8-1.66,3.29,3.29,0,0,0-2.07-.61,3.14,3.14,0,0,0-2,.52,4.78,4.78,0,0,0-1.18,1.57,6.69,6.69,0,0,1-.89,1.46,1.78,1.78,0,0,1-1.34.42,2,2,0,0,1-1.37-.49,1.68,1.68,0,0,1-.55-1.3,4.23,4.23,0,0,1,.81-2.38,6,6,0,0,1,2.49-2,9.58,9.58,0,0,1,4.12-.79c2.44,0,4.26.5,5.45,1.52a4.66,4.66,0,0,1,1.8,3.69,4.83,4.83,0,0,1-1.41,3.46,25,25,0,0,1-4,3.21,19.69,19.69,0,0,0-3.39,2.59h6.63a3.24,3.24,0,0,1,1.88.47,1.5,1.5,0,0,1,.65,1.28,1.65,1.65,0,0,1-.53,1.21A2.21,2.21,0,0,1,165.67,157.73Z" transform="translate(-5.5 -7.44)" fill="#2f3e55"/></g></g><g id="Growth"><path id="mountain-2" d="M17,119.83l58.1-64.32L95.93,80.13l52.56-59.61,31.13,51.1,27.93,25.63L179.62,83.33,169.11,94.81,148.49,30.6,132.07,57.1,110,71.63V88.2l-7.92,15.12L77.92,77.54l-9.64,22L60.79,87Z" transform="translate(-5.5 -7.44)" fill="#f7c91e"/><g id="arrow"><line id="_4" data-name=" 4" x1="8.44" y1="112.86" x2="69.45" y2="45.9" fill="none" stroke="#2f3e55" stroke-linecap="round" stroke-width="7"/><line id="_5" data-name=" 5" x1="90.28" y1="71.2" x2="69.45" y2="45.9" fill="none" stroke="#2f3e55" stroke-linecap="round" stroke-width="7"/><line id="_6" data-name=" 6" x1="90.28" y1="71.2" x2="148.31" y2="3.5" fill="none" stroke="#2f3e55" stroke-linecap="round" stroke-width="7"/><line id="_7" data-name=" 7" x1="148.31" y1="14.66" x2="148.31" y2="3.5" fill="none" stroke="#2f3e55" stroke-linecap="round" stroke-width="7"/><line id="_8" data-name=" 8" x1="136.4" y1="7.22" x2="148.31" y2="3.5" fill="none" stroke="#2f3e55" stroke-linecap="round" stroke-width="7"/></g></g></g></svg>