<svg xmlns="http://www.w3.org/2000/svg" id="sct_logo_colored_squaredWithoutSubtitle" data-name="sct logo colored squaredWithoutSubtitle" viewBox="0 0 255 255"><rect id="bg" width="255" height="255" fill="#f7c91e"/><g id="Sct_" data-name="Sct" style="isolation:isolate"><g style="isolation:isolate"><path fill="#2f3e55" d="M99.48,194.47a10.26,10.26,0,0,1-1.64,5.72,10.84,10.84,0,0,1-4.79,4,18,18,0,0,1-7.49,1.44,17,17,0,0,1-8.57-2,11.5,11.5,0,0,1-3.89-3.77,8.6,8.6,0,0,1-1.49-4.58,3.09,3.09,0,0,1,3.18-3.14,2.69,2.69,0,0,1,1.9.72A5.69,5.69,0,0,1,78,195a14.24,14.24,0,0,0,1.45,2.8,5.82,5.82,0,0,0,2.19,1.85,8,8,0,0,0,3.71.73,8.39,8.39,0,0,0,5.13-1.47,4.43,4.43,0,0,0,2-3.67,3.89,3.89,0,0,0-1.06-2.84,6.92,6.92,0,0,0-2.75-1.66c-1.13-.38-2.63-.79-4.51-1.22a32.86,32.86,0,0,1-6.33-2.07,10.3,10.3,0,0,1-4-3.23,8.42,8.42,0,0,1-1.49-5.08A8.7,8.7,0,0,1,73.86,174a9.86,9.86,0,0,1,4.57-3.45,18.61,18.61,0,0,1,7-1.21,17.28,17.28,0,0,1,5.59.8A11.68,11.68,0,0,1,95,172.26,8.81,8.81,0,0,1,97.23,175a6.46,6.46,0,0,1,.72,2.85,3.37,3.37,0,0,1-.9,2.29,2.83,2.83,0,0,1-2.23,1,2.56,2.56,0,0,1-1.86-.61,8.08,8.08,0,0,1-1.37-2,9.06,9.06,0,0,0-2.3-3.1A6.73,6.73,0,0,0,85,174.38a7.52,7.52,0,0,0-4.44,1.2,3.53,3.53,0,0,0-1.68,2.91,3,3,0,0,0,.57,1.82A4.86,4.86,0,0,0,81,181.63a11.43,11.43,0,0,0,2,.86c.69.2,1.82.51,3.4.9a54.31,54.31,0,0,1,5.37,1.54,15.77,15.77,0,0,1,4.09,2,8.37,8.37,0,0,1,2.64,3A9.67,9.67,0,0,1,99.48,194.47Z"/><path fill="#2f3e55" d="M135.39,193.92a9.35,9.35,0,0,1-.82,3.63,13.32,13.32,0,0,1-7.12,6.88A16.26,16.26,0,0,1,121,205.6a22.5,22.5,0,0,1-5.05-.53,13.53,13.53,0,0,1-7.54-4.57,17.91,17.91,0,0,1-2.37-3.69,19.71,19.71,0,0,1-1.47-4.37,24.31,24.31,0,0,1-.49-4.93,21.64,21.64,0,0,1,1.24-7.58,16,16,0,0,1,3.52-5.73,15.46,15.46,0,0,1,5.39-3.63,17.42,17.42,0,0,1,6.58-1.24,16.33,16.33,0,0,1,7.58,1.7,13.74,13.74,0,0,1,5.1,4.19A8.32,8.32,0,0,1,135.3,180a3.09,3.09,0,0,1-.86,2.15,2.76,2.76,0,0,1-2.08.94,2.88,2.88,0,0,1-2.05-.65,9.11,9.11,0,0,1-1.52-2.22,10.56,10.56,0,0,0-3.27-3.9,7.89,7.89,0,0,0-4.62-1.3,8.39,8.39,0,0,0-7,3.33q-2.6,3.33-2.6,9.45a17.66,17.66,0,0,0,1.15,6.81,8.56,8.56,0,0,0,3.26,4.05,9,9,0,0,0,4.93,1.34,8.62,8.62,0,0,0,5.18-1.52A9.18,9.18,0,0,0,129,194a7.56,7.56,0,0,1,1.12-2.26,2.56,2.56,0,0,1,2.16-.87,3,3,0,0,1,2.17.88A2.93,2.93,0,0,1,135.39,193.92Z"/><path fill="#2f3e55" d="M164.56,175.79h-7.75v25.48a4.69,4.69,0,0,1-1,3.26,3.57,3.57,0,0,1-5.11,0,4.66,4.66,0,0,1-1-3.25V175.79H142a3.94,3.94,0,0,1-2.7-.8,2.73,2.73,0,0,1-.89-2.12,2.69,2.69,0,0,1,.93-2.16,4,4,0,0,1,2.66-.79h22.59a4,4,0,0,1,2.74.82,2.95,2.95,0,0,1,0,4.25A4.06,4.06,0,0,1,164.56,175.79Z"/><path fill="#2f3e55" d="M182.89,187.7H172.5a2.75,2.75,0,0,1-1.89-.6,1.84,1.84,0,0,1-.67-1.41,2.66,2.66,0,0,1,.6-1.64,10,10,0,0,1,1.56-1.56c.63-.53,1.6-1.29,2.89-2.28l1.95-1.35a14.74,14.74,0,0,0,2.51-2,2.65,2.65,0,0,0,.73-1.8,2,2,0,0,0-.8-1.66,3.29,3.29,0,0,0-2.07-.61,3.19,3.19,0,0,0-2,.52,4.76,4.76,0,0,0-1.17,1.57,6.27,6.27,0,0,1-.9,1.46,1.75,1.75,0,0,1-1.34.42,2,2,0,0,1-1.36-.49,1.65,1.65,0,0,1-.55-1.3,4.28,4.28,0,0,1,.81-2.39,6,6,0,0,1,2.49-2,9.58,9.58,0,0,1,4.12-.79c2.44,0,4.26.5,5.45,1.52a4.66,4.66,0,0,1,1.8,3.69,4.83,4.83,0,0,1-1.41,3.46,24.66,24.66,0,0,1-4,3.21,19.91,19.91,0,0,0-3.38,2.59h6.63a3.19,3.19,0,0,1,1.87.47A1.49,1.49,0,0,1,185,186a1.64,1.64,0,0,1-.54,1.21A2.19,2.19,0,0,1,182.89,187.7Z"/></g></g><g id="Growth"><path id="mountain-2" fill="#fff" d="M34.17,149.81l58.1-64.32,20.88,24.62L165.7,50.5l31.14,51.1,27.93,25.63-27.93-13.92-10.52,11.48L165.7,60.58l-16.41,26.5-22,14.53v16.57l-7.92,15.12-24.2-25.78-9.64,22L78,117Z"/><g id="arrow"><line id="_4" x1="31.16" x2="92.17" y1="150.27" y2="83.31" fill="none" stroke="#2f3e55" stroke-linecap="round" stroke-width="7" data-name="4"/><line id="_5" x1="113" x2="92.17" y1="108.61" y2="83.31" fill="none" stroke="#2f3e55" stroke-linecap="round" stroke-width="7" data-name="5"/><line id="_6" x1="113" x2="171.03" y1="108.61" y2="40.9" fill="none" stroke="#2f3e55" stroke-linecap="round" stroke-width="7" data-name="6"/><line id="_7" x1="171.03" x2="171.03" y1="52.06" y2="40.9" fill="none" stroke="#2f3e55" stroke-linecap="round" stroke-width="7" data-name="7"/><line id="_8" x1="159.12" x2="171.03" y1="44.62" y2="40.9" fill="none" stroke="#2f3e55" stroke-linecap="round" stroke-width="7" data-name="8"/></g></g></svg>