<svg id="Calque_1" data-name="Calque 1" xmlns="http://www.w3.org/2000/svg" viewBox="0 0 291 211.11">
    <g id="contactsAroundMan_illustration_colored" data-name="contactsAroundMan illustration colored">
        <ellipse id="ground" cx="141.54" cy="193.61" rx="75" ry="17.5" fill="#3f3d56"/>
        <path id="links" d="M23,92.38l191,56L195.52,26Z" transform="translate(0 -7.38)" fill="none" stroke="#3f3d56"
              stroke-width="1"/>
        <g id="walkingMan">
            <path id="arm_left" data-name="arm left"
                  d="M123.79,59.35h-1.56l-6.64,24.1s-.13,16,1.43,23.84c0,0,2.61-3.39,4.43-3.39S125,86.84,125,86.84,132.13,62.48,123.79,59.35Z"
                  transform="translate(0 -7.38)" fill="#3f3d56"/>
            <path id="hand_right" data-name="hand right"
                  d="M158.18,105.47s-4.17,11.72-.26,12.5,6-9.12,5-10.43S158.18,105.47,158.18,105.47Z"
                  transform="translate(0 -7.38)" fill="#ab8362"/>
            <path id="hand_left" data-name="hand left"
                  d="M116.6,103s1.17,12.39,5,11.45,1.58-10.8.09-11.54S116.6,103,116.6,103Z"
                  transform="translate(0 -7.38)" fill="#ab8362"/>
            <path id="ankle_left" data-name="ankle left"
                  d="M126.66,175.54s1.82,8.86-1.3,11.2,1,7.3,1,7.3l9.9-10.42s-4.17-6.52-3.91-10.42Z"
                  transform="translate(0 -7.38)" fill="#ab8362"/>
            <path id="ankle_right" data-name="ankle right" d="M142.29,183.62l-1,7L141,195.6l5.73-.52.78-10.16Z"
                  transform="translate(0 -7.38)" fill="#ab8362"/>
            <path id="legs"
                  d="M120.23,104.29a4.61,4.61,0,0,0-3,4.56c.26,3.39,1,14.07,1,14.07s-2.34,22.93,0,30.74,6.78,23.45,6.78,23.45,6.77,1.3,8.33-3.65c0,0-.26-16.93-3.12-20.58s-.79-4.69-.53-5.21,1.05-1.3,1.05-2.08.26-3.65.26-4.69a4,4,0,0,1,.26-2.35c.52-1.56,1-2.08,1-2.34s4.43-14.07,4.43-14.07l5.73,32s-1.3,31.52-.78,31.52,6.25,2.09,8.33,0c0,0,5.21-27.09,4.17-28.65s-1.3-1.83-1-3.39.78-2.35.26-3.13-1.3-3.38-.52-4.16,1-4.43,1-4.43,4.43-25.53,1.56-29.18S120.23,104.29,120.23,104.29Z"
                  transform="translate(0 -7.38)" fill="#2f2e41"/>
            <path id="shoe_left" data-name="shoe left"
                  d="M129,187s-3.12-3.91-4.16-2.09-2.61,4.69-2.61,4.69S110.5,199.77,117,200a14.56,14.56,0,0,0,10.68-4.43s1-5.21,4.17-5.21l.52,1.3,5.73-3.64s-.81-6.92-3.14-6.72Z"
                  transform="translate(0 -7.38)" fill="#2f2e41"/>
            <path id="shoe_right" data-name="shoe right"
                  d="M140,194.82s6.77-2.6,7.55,0a15.33,15.33,0,0,1,.78,3.91s5.73,9.38,0,9.9S140,205.5,140,205.5s.78-4.43,0-4.95S140,194.82,140,194.82Z"
                  transform="translate(0 -7.38)" fill="#2f2e41"/>
            <path id="neck" d="M137.86,44,136,54.14l12.76,3.13s-3-7.42.26-10.68C149.89,45.77,137.86,44,137.86,44Z"
                  transform="translate(0 -7.38)" fill="#ab8362"/>
            <path id="face_shadow" data-name="face shadow"
                  d="M147.44,50.54v-.37s-1.58,1.11-5.12.1a9.51,9.51,0,0,1-5.11-3.3l-.07.4a8.7,8.7,0,0,0,5.1,3.46C145.56,51.53,147.43,50.56,147.44,50.54Z"
                  transform="translate(0 -7.38)"/>
            <circle id="face" cx="144.63" cy="34.52" r="9.12" fill="#ab8362"/>
            <path id="face_shadow-2" data-name="face shadow-2"
                  d="M147.55,52.56l-.08-.27s-2.06.86-5.81,0-4.92-2.7-4.92-2.7l-.07.39a9.36,9.36,0,0,0,5.18,2.86A12.76,12.76,0,0,0,147.55,52.56Z"
                  transform="translate(0 -7.38)"/>
            <path id="body"
                  d="M136.82,49.82a1.63,1.63,0,0,0-1.3,1.2,6.91,6.91,0,0,1-1.05,2.08s-12.24,5.73-12.24,6.51,5,17.46,5,17.46.26,10.42-1.82,12.76-4.17,10.94-3.65,11.73-3.65,2.6-2.09,3.9,23.45,13.81,36.48,8.08a18.25,18.25,0,0,0,0-3.91c-.26-1.56,1.56-6.77,1-8.6s0-20.58,0-20.58l2.68-22.21a1.81,1.81,0,0,0-1.26-2c-3-.91-10-4.65-10.93-3.84C146.39,53.49,138.63,52.78,136.82,49.82Z"
                  transform="translate(0 -7.38)" fill="#3f3d56"/>
            <g id="arm_right" data-name="arm right">
                <path id="shadow"
                      d="M154.75,68.77A15,15,0,0,1,157.91,77c.58,5.39-.86,13.38-.86,13.38S152.18,72.25,154.75,68.77Z"
                      transform="translate(0 -7.38)" opacity="0.1" style="isolation:isolate"/>
                <path id="arm"
                      d="M157.4,56.23h0a1.81,1.81,0,0,1,2.13.61c1.61,2.21,5,7.18,5.4,10.34.53,4.17,2.09,15.37,1.83,16.93s-.52,1.83,0,2.61.26.52,0,1.3-3.39,22.4-3.39,22.4-2.08-4.69-6-3.13c0,0,.52-4.17,0-5.47s-1-2.08-.52-3.13,0-11.2-.26-12.24a54.38,54.38,0,0,1,0-6.51l-2.35-10.68Z"
                      transform="translate(0 -7.38)" fill="#3f3d56"/>
            </g>
            <path id="air"
                  d="M142.93,43.45l.31-2.14c.07-.5.36-1.16.85-1s1.32.47,1.47.37c.56-.4,1.42.3,2-.06.24-.15.41-.47.7-.49a.83.83,0,0,1,.51.23,3.48,3.48,0,0,0,1.33.73,1.42,1.42,0,0,0,1.4-.39.92.92,0,0,1,.25-.23.56.56,0,0,1,.36,0l1.52.42a5.84,5.84,0,0,0-.78-4.81,9.73,9.73,0,0,0-2.22-2.17c-.94-.72-1.91-1.39-2.91-2a9.42,9.42,0,0,0-3.54-1.54,3.78,3.78,0,0,0-3.52,1.17,2.25,2.25,0,0,1-.82-1.1.84.84,0,0,0-.05,1.18l.1.1-1.28-.82c-.36.38.34,1.07,0,1.49a1,1,0,0,1-.35.23,5.75,5.75,0,0,0-1.88,1.18A7,7,0,0,0,135,36.5c-.76,2.2-1.32,4.71-.23,6.77.12.23,1.75,4.08,2,4.23.73.51.25-.72.78,0s.33-1.6.95-1.12a1.52,1.52,0,0,0,1.66.07c.25-.17.17-1.15,0-2.05a1,1,0,0,1,.89-1.2,1.08,1.08,0,0,1,.4,0A4.42,4.42,0,0,0,142.93,43.45Z"
                  transform="translate(0 -7.38)" fill="#2f2e41"/>
        </g>
        <g id="childrenMan">
            <path id="bg"
                  d="M213.5,125.38h76.22a1.28,1.28,0,0,1,1.28,1.28V169.1a1.28,1.28,0,0,1-1.28,1.28H213.5a22.5,22.5,0,0,1-22.5-22.5h0A22.5,22.5,0,0,1,213.5,125.38Z"
                  transform="translate(0 -7.38)" fill="#fff"/>
            <g id="infos">
                <rect id="btn" x="271.26" y="148.87" width="14.6" height="5.58" rx="1" fill="#1e4cf7"/>
                <rect id="info_line" data-name="info line" x="241" y="126.72" width="45" height="15" rx="1"
                      fill="#1e4cf7" opacity="0.3" style="isolation:isolate"/>
            </g>
            <g id="avatar">
                <circle id="bg-2" cx="213.5" cy="140.5" r="22.5" fill="#4f1ef7"/>
                <g id="flowers">
                    <g id="flower-2">
                        <path id="stalk"
                              d="M211.39,163.48l-.2,0-.17-.05c0-.12,0-.25,0-.39,0-1.12-.12-2.92-.32-5.08l0-.35c-.07-.74-.15-1.51-.25-2.31,0,0,0-.05,0-.08-.08-.65-.17-1.31-.27-2-.07-.47-.15-1-.23-1.44l0-.1c0-.14,0-.28-.08-.42-.07-.39-.14-.79-.22-1.18-.28-1.39-.61-2.78-1-4.14a32.82,32.82,0,0,0-1.48-4.13,20.63,20.63,0,0,0-1.61-3l0,0a11.65,11.65,0,0,0-2.73-3l.21-.29a11.94,11.94,0,0,1,2.73,2.9h0a20.07,20.07,0,0,1,1.62,2.9,31.26,31.26,0,0,1,1.54,4.18c.4,1.32.75,2.76,1.06,4.3.11.55.22,1.11.32,1.68l.05.29h0c0,.15.05.3.08.45.06.39.12.77.17,1.14.09.59.17,1.16.24,1.72l.06.55.09.76c0,.35.07.69.1,1v.25C211.29,160.28,211.36,162.41,211.39,163.48Z"
                              transform="translate(0 -7.38)" opacity="0.2" style="isolation:isolate"/>
                        <path id="leaf"
                              d="M198.6,141.51a8.14,8.14,0,0,0,3.92-1.37,7.36,7.36,0,0,0-8,.4A8.12,8.12,0,0,0,198.6,141.51Z"
                              transform="translate(0 -7.38)" opacity="0.2" style="isolation:isolate"/>
                        <circle id="flower" cx="200.71" cy="126.81" r="1.81" opacity="0.2" style="isolation:isolate"/>
                    </g>
                    <g id="flower-1">
                        <path id="stalk-2"
                              d="M203.49,164.45h0l-.36-.2c0-.48-.1-1-.17-1.56,0-.12,0-.23-.05-.35a1.23,1.23,0,0,0,0-.19c-.07-.49-.16-1-.26-1.5a12.43,12.43,0,0,0-2.22-5.48l-.19-.2a3.8,3.8,0,0,0-.52-.46l.21-.29a4.39,4.39,0,0,1,.71.65,2.75,2.75,0,0,1,.22.26,12.7,12.7,0,0,1,2.1,5.18c.11.5.2,1,.28,1.49,0,.13,0,.25.05.38C203.37,163,203.44,163.78,203.49,164.45Z"
                              transform="translate(0 -7.38)" opacity="0.2" style="isolation:isolate"/>
                        <path id="leaf-2"
                              d="M198.25,158.64a5.61,5.61,0,0,0,2.9.18,5.13,5.13,0,0,0-5.24-1.91A5.72,5.72,0,0,0,198.25,158.64Z"
                              transform="translate(0 -7.38)" opacity="0.2" style="isolation:isolate"/>
                        <circle id="flower-2-2" cx="198.02" cy="144.86" r="1.81" opacity="0.2"
                                style="isolation:isolate"/>
                    </g>
                </g>
                <path id="neck-2" d="M217,158.55v2.76a3.53,3.53,0,0,1-3.54,3.54h0a3.53,3.53,0,0,1-3.54-3.54v-2.76Z"
                      transform="translate(0 -7.38)" fill="#fcd8c6"/>
                <path id="teeShirt_shadow" data-name="teeShirt shadow"
                      d="M217.08,161.52h-.14a3.54,3.54,0,0,1-3.46,3.1,3.45,3.45,0,0,1-3.39-3.1H210s.39,3.32,3.53,3.32S217.07,161.53,217.08,161.52Z"
                      transform="translate(0 -7.38)"/>
                <path id="teeShirt"
                      d="M213.48,170.43a22.53,22.53,0,0,0,12.33-3.74c0-5.15-3.95-5.16-3.95-5.16h-4.8s-.4,3.3-3.58,3.3-3.53-3.3-3.53-3.3H205s-4.09-.1-4.09,5A23,23,0,0,0,213.48,170.43Z"
                      transform="translate(0 -7.38)" fill="#2f2e41"/>
                <circle id="hair_back" data-name="hair back" cx="213.53" cy="140.84" r="11.06" fill="#333"/>
                <g id="ears">
                    <ellipse id="ear_left" data-name="ear left" cx="203.67" cy="141.97" rx="0.94" ry="1.77"
                             fill="#f3c9b5"/>
                    <ellipse id="ear_right" data-name="ear right" cx="223.38" cy="141.97" rx="0.94" ry="1.77"
                             fill="#f3c9b5"/>
                </g>
                <path id="face_shadow-3" data-name="face shadow-3"
                      d="M217.09,158.82v-.14s-.56.77-3.61.77-3.51-.77-3.51-.77v.14a6.15,6.15,0,0,0,3.51.77A6.55,6.55,0,0,0,217.09,158.82Z"
                      transform="translate(0 -7.38)"/>
                <circle id="face-2" cx="213.53" cy="141.95" r="10.15" fill="#fcd8c6"/>
                <path id="hair_front" data-name="hair front"
                      d="M207.71,139c2.6-2.12,5.27-2.4,6.95-4.65a1.32,1.32,0,0,1-.48,1.8l-.12.06c1.61,0,3.47-.15,4.38-1.48a3,3,0,0,1-.5,3.18c1.42.07,3.55.56,3.55,2.65,0,0,.68,3.2.68,3.2s-2.32,1.84-7.2,1.54a9.27,9.27,0,0,1-7.15-4.48S207.7,139.05,207.71,139Z"
                      transform="translate(0 -7.38)" fill="#333"/>
            </g>
        </g>
        <g id="manCard">
            <path id="bg-3"
                  d="M22.5,70.38H98.72A1.28,1.28,0,0,1,100,71.66V114.1a1.28,1.28,0,0,1-1.28,1.28H22.5A22.5,22.5,0,0,1,0,92.88H0A22.5,22.5,0,0,1,22.5,70.38Z"
                  transform="translate(0 -7.38)" fill="#fff"/>
            <g id="infos-2">
                <rect id="btn-2" x="80.26" y="93.87" width="14.6" height="5.58" rx="1" fill="#1e4cf7"/>
                <rect id="info_line-2" data-name="info line-2" x="50" y="71.72" width="45" height="15" rx="1"
                      fill="#1e4cf7" opacity="0.3" style="isolation:isolate"/>
            </g>
            <g id="avatar-2">
                <circle id="bg-4" cx="22.5" cy="85.5" r="22.5" fill="#4f1ef7"/>
                <g id="flowers-2">
                    <g id="flower-2-3">
                        <path id="stalk-3"
                              d="M12.69,108.58h0l-.42-.23c-.05-.55-.11-1.16-.19-1.81l-.06-.4,0-.21q-.12-.86-.3-1.74a14.28,14.28,0,0,0-2.57-6.34l-.22-.23a4.37,4.37,0,0,0-.6-.53l.25-.33a5.29,5.29,0,0,1,.82.75c.09.09.17.19.26.3a14.91,14.91,0,0,1,2.42,6c.12.58.23,1.16.31,1.72,0,.15.05.3.07.44C12.54,106.9,12.63,107.8,12.69,108.58Z"
                              transform="translate(0 -7.38)" opacity="0.2" style="isolation:isolate"/>
                        <path id="leaf-3"
                              d="M6.63,101.87a6.61,6.61,0,0,0,3.36.21,6,6,0,0,0-6.06-2.22A6.47,6.47,0,0,0,6.63,101.87Z"
                              transform="translate(0 -7.38)" opacity="0.2" style="isolation:isolate"/>
                        <circle id="flower-3" cx="6.36" cy="87.09" r="2.09" opacity="0.2" style="isolation:isolate"/>
                    </g>
                    <g id="flower-1-2">
                        <path id="stalk-4"
                              d="M21,114.58l-.23-.06-.2,0c0-.13,0-.29,0-.45,0-1.29-.14-3.37-.37-5.87l0-.41c-.08-.85-.18-1.74-.29-2.66a.29.29,0,0,0,0-.09c-.09-.75-.2-1.52-.31-2.3-.08-.55-.17-1.11-.27-1.67l0-.11-.09-.49c-.08-.45-.16-.91-.25-1.36-.32-1.6-.7-3.22-1.16-4.78a36.61,36.61,0,0,0-1.71-4.77A22.68,22.68,0,0,0,14.2,86l0-.05A13.49,13.49,0,0,0,11,82.57l.25-.33a13.48,13.48,0,0,1,3.14,3.34l0,0A23.87,23.87,0,0,1,16.3,89a36.32,36.32,0,0,1,1.78,4.83q.69,2.3,1.23,5c.13.63.25,1.28.36,1.94l.06.34h0l.09.52c.07.44.14.88.2,1.32q.15,1,.27,2c0,.21.05.43.07.64s.07.59.1.88.09.79.12,1.18v.11l0,.18C20.9,110.88,21,113.34,21,114.58Z"
                              transform="translate(0 -7.38)" opacity="0.2" style="isolation:isolate"/>
                        <path id="leaf-4"
                              d="M10,89.92a9.28,9.28,0,0,0,4.79.31,8.55,8.55,0,0,0-8.65-3.16A9.4,9.4,0,0,0,10,89.92Z"
                              transform="translate(0 -7.38)" opacity="0.2" style="isolation:isolate"/>
                        <circle id="flower-4" cx="8.69" cy="73.08" r="2.09" opacity="0.2" style="isolation:isolate"/>
                    </g>
                </g>
                <path id="neck-3"
                      d="M18,95.17s1.12,5.31,1.12,5.87,5.3,3.07,5.3,3.07l4.75-.84,1.67-5s-2.79-4.19-2.79-5.87Z"
                      transform="translate(0 -7.38)" fill="#ebbb99"/>
                <path id="teeShirt_shadow-2" data-name="teeShirt shadow-2"
                      d="M30.22,97.51s-.42,4.7-4.66,5.54-6.5-3.28-6.5-3.28h-.17a6.11,6.11,0,0,0,6.77,3.68c4.95-.93,4.76-5.94,4.76-5.94Z"
                      transform="translate(0 -7.38)" opacity="0.38" style="isolation:isolate"/>
                <path id="teeShirt-2"
                      d="M43.34,101.35c-.23.8-4.71,11.6-16.86,13.67a22.23,22.23,0,0,1-19.91-6.27c0-.19,12.25-9.34,12.35-8.94a6,6,0,0,0,11.47-2.29C30.39,97.27,43.34,101.16,43.34,101.35Z"
                      transform="translate(0 -7.38)" fill="#2f2e41"/>
                <path id="face_shadow-4" data-name="face shadow-4"
                      d="M29.12,95.24,29,95s-.8,1.81-4.73,2.58-5.87-.9-5.87-.9V97a7.7,7.7,0,0,0,5.94.94C28.07,97.2,29.12,95.27,29.12,95.24Z"
                      transform="translate(0 -7.38)"/>
                <circle id="face-3" cx="22.58" cy="81.58" r="9" fill="#ebbb99"/>
                <path id="hair"
                      d="M14.78,81.81s2.83-6.15,8.27-4.73,8.51,3.54,8.75,5.67a31.48,31.48,0,0,1-.12,5.32s-.59-4.37-4.37-3.43-9.7.24-9.7.24l-.94,8.51s-1.07-1.54-2.25-.59S11,83.69,14.78,81.81Z"
                      transform="translate(0 -7.38)" fill="#2f2e41"/>
            </g>
        </g>
        <g id="womanCard">
            <path id="bg-5"
                  d="M194.5,7.38h76.22A1.28,1.28,0,0,1,272,8.66V51.1a1.28,1.28,0,0,1-1.28,1.28H194.5A22.5,22.5,0,0,1,172,29.88h0A22.5,22.5,0,0,1,194.5,7.38Z"
                  transform="translate(0 -7.38)" fill="#fff"/>
            <g id="infos-3">
                <rect id="btn-3" x="252.26" y="30.87" width="14.6" height="5.58" rx="1" fill="#1e4cf7"/>
                <rect id="info_line-3" data-name="info line-3" x="222" y="8.72" width="45" height="15" rx="1"
                      fill="#1e4cf7" opacity="0.3" style="isolation:isolate"/>
            </g>
            <g id="picture">
                <circle id="bg-6" cx="194.5" cy="22.5" r="22.5" fill="#4f1ef7"/>
                <g id="flowers-3">
                    <g id="flower-2-4">
                        <path id="stalk-5"
                              d="M203.51,47.58h0c.15-.07.29-.15.43-.23,0-.55.11-1.16.19-1.8,0-.14,0-.27,0-.4a1.43,1.43,0,0,1,0-.22c.08-.57.17-1.15.3-1.74a14.2,14.2,0,0,1,2.57-6.33c.07-.09.14-.16.21-.24a4.86,4.86,0,0,1,.6-.52l-.24-.34a4.87,4.87,0,0,0-.82.75l-.26.3a14.77,14.77,0,0,0-2.42,6c-.13.58-.23,1.16-.32,1.73l-.06.43C203.66,45.9,203.57,46.8,203.51,47.58Z"
                              transform="translate(0 -7.38)" opacity="0.2" style="isolation:isolate"/>
                        <path id="leaf-5"
                              d="M209.56,40.87a6.46,6.46,0,0,1-3.35.21,6,6,0,0,1,6.06-2.22A6.5,6.5,0,0,1,209.56,40.87Z"
                              transform="translate(0 -7.38)" opacity="0.2" style="isolation:isolate"/>
                        <circle id="flower-5" cx="209.84" cy="26.09" r="2.09" opacity="0.2" style="isolation:isolate"/>
                    </g>
                    <g id="flower-1-3">
                        <path id="stalk-6"
                              d="M198.18,52.58l.22-.06.2-.05c0-.13,0-.29,0-.45,0-1.29.13-3.37.36-5.87,0-.14,0-.27,0-.41.08-.85.18-1.74.29-2.66,0,0,0-.06,0-.09.1-.75.2-1.52.32-2.3.08-.55.17-1.11.27-1.67l0-.11c0-.17,0-.33.08-.49.08-.45.17-.91.26-1.36.32-1.6.7-3.22,1.16-4.78a36.61,36.61,0,0,1,1.71-4.77A23.53,23.53,0,0,1,205,24l0-.05a13.31,13.31,0,0,1,3.15-3.42l-.25-.33a13.89,13.89,0,0,0-3.15,3.34v0A22.9,22.9,0,0,0,202.9,27a37.83,37.83,0,0,0-1.79,4.83q-.68,2.3-1.22,5c-.13.63-.25,1.28-.37,1.94l-.05.34h0l-.09.52c-.08.44-.14.88-.2,1.32q-.15,1-.27,2c0,.21,0,.43-.08.64s-.06.59-.1.88l-.12,1.18v.29C198.29,48.88,198.21,51.34,198.18,52.58Z"
                              transform="translate(0 -7.38)" opacity="0.2" style="isolation:isolate"/>
                        <path id="leaf-6"
                              d="M209.16,27.92a9.28,9.28,0,0,1-4.79.31A8.55,8.55,0,0,1,213,25.07,9.4,9.4,0,0,1,209.16,27.92Z"
                              transform="translate(0 -7.38)" opacity="0.2" style="isolation:isolate"/>
                        <circle id="flower-6" cx="210.51" cy="11.08" r="2.09" opacity="0.2" style="isolation:isolate"/>
                    </g>
                </g>
                <circle id="hair-2" cx="192.57" cy="22.42" r="11.42" fill="#2f2e41"/>
                <path id="body-2"
                      d="M209.61,46.55a22.52,22.52,0,0,1-28.55,1.39c1.2-2.18,3.48-2.9,6.34-3.7,2.16-.6,2.78-2.29,2.57-4.79s-.49-2.58-.49-2.58h6.93a13.84,13.84,0,0,0,.68,2.42c.47,1.24,1.11,2.71,2.4,3.24a10.22,10.22,0,0,0,4.44.74c1.95,0,2.93.08,4,.82A5.38,5.38,0,0,1,209.61,46.55Z"
                      transform="translate(0 -7.38)" fill="#e4b09a"/>
                <path id="face_shadow-5" data-name="face shadow-5"
                      d="M197.06,39.16l-.09-.25s-.66,1-3,1.31a6.74,6.74,0,0,1-3.93-.6v.22a6.24,6.24,0,0,0,4,.62C196.3,40.07,197.06,39.18,197.06,39.16Z"
                      transform="translate(0 -7.38)"/>
                <circle id="face-4" cx="193" cy="26" r="7" fill="#e4b09a"/>
                <path id="dress_shadow" data-name="dress shadow"
                      d="M207.84,44,183.7,49.65l-.47-.3c3.82-.89,24-5.61,24.19-5.56A1.27,1.27,0,0,1,207.84,44Z"
                      transform="translate(0 -7.38)"/>
                <path id="dress"
                      d="M210.19,46a24.5,24.5,0,0,1-1.87,1.65,8.35,8.35,0,0,1-1.79.43l.08.8a22.61,22.61,0,0,1-12,3.5,21.2,21.2,0,0,1-11.18-2.89c3.82-.89,24.93-5.9,25.39-5.79S210.2,46,210.19,46Z"
                      transform="translate(0 -7.38)" fill="#2f2e41"/>
                <g id="bun_left" data-name="bun left">
                    <path id="strand"
                          d="M180.31,23.66a3.39,3.39,0,0,1-2-4.08,3.4,3.4,0,1,0,6,3.2,2.77,2.77,0,0,0,.27-.67A3.4,3.4,0,0,1,180.31,23.66Z"
                          transform="translate(0 -7.38)" fill="#2f2e41"/>
                    <circle id="bun" cx="182.36" cy="13.18" r="3.4" fill="#2f2e41"/>
                </g>
                <g id="bun_right" data-name="bun right">
                    <path id="strand-2"
                          d="M199.37,18.11a3.41,3.41,0,0,1,3-3.38,3.4,3.4,0,1,0-.73,6.76,3,3,0,0,0,.73,0A3.39,3.39,0,0,1,199.37,18.11Z"
                          transform="translate(0 -7.38)" fill="#2f2e41"/>
                    <circle id="bun-2" cx="203.02" cy="12.19" r="3.4" fill="#2f2e41"/>
                </g>
                <path id="hair_frontal" data-name="hair frontal"
                      d="M192.57,23.46c-4,0-7.29,1.9-7.29,4.25A3.47,3.47,0,0,0,187,30.46l1.4-1L188,31l.49.21,2.1-2.45v3a11.45,11.45,0,0,0,1.94.15c4,0,7.29-1.9,7.29-4.25S196.59,23.46,192.57,23.46Z"
                      transform="translate(0 -7.38)" fill="#2f2e41"/>
                <g id="ears-2">
                    <ellipse id="ear_left-2" data-name="ear left-2" cx="185.93" cy="33.95" rx="0.58" ry="1.38"
                             transform="matrix(0.96, -0.27, 0.27, 0.96, -2.27, 44)" fill="#e4b09a"/>
                    <ellipse id="ear_right-2" data-name="ear right-2" cx="200.16" cy="32.8" rx="1.38" ry="0.58"
                             transform="translate(155.12 223.18) rotate(-86.48)" fill="#e4b09a"/>
                </g>
            </g>
        </g>
    </g>
</svg>
