<svg id="Calque_1" data-name="Calque 1" xmlns="http://www.w3.org/2000/svg" viewBox="0 0 208.82 251.39"><g id="invoicesBehindWoman_illustration_colored" data-name="invoicesBehindWoman illustration colored"><g id="_3" data-name=" 3"><path id="bg-4" d="M168.67,218.26H5.51V9.62s165.65-9.26,163.16,0S168.67,218.26,168.67,218.26Z" transform="translate(-5.15 -5.43)" fill="#f2f2f2"/><path id="outline" d="M169,218.61H5.15V9.27S53.39,6.88,89.25,6s59.38-.36,59.38-.36v.7S125,6.23,89.25,7.15,5.85,10,5.85,10v208H168.32V52.47H169Z" transform="translate(-5.15 -5.43)" fill="#3f3d56"/><g id="waves"><path id="_4" data-name=" 4" d="M72.07,113.65a3,3,0,0,1-.42,0c-2.28-.14-4.29-1.43-6-3.83s-3.48-3.58-5.38-3.56c-3.15,0-5.52,3.51-5.54,3.55l0,0c-.16.17-3.77,4.07-8.06,3.8-2.27-.14-4.29-1.43-6-3.84s-3.5-3.58-5.37-3.55c-3.16,0-5.52,3.51-5.55,3.55l-.57-.39c.1-.16,2.6-3.81,6.11-3.86,2.13,0,4.12,1.27,5.95,3.85,1.57,2.23,3.41,3.42,5.46,3.55,3.83.23,7.23-3.29,7.49-3.56s2.69-3.79,6.1-3.84h.06c2.1,0,4.08,1.3,5.89,3.85,1.57,2.23,3.41,3.42,5.46,3.55,4,.25,7.47-3.54,7.5-3.58l.51.47C79.55,110,76.17,113.65,72.07,113.65Z" transform="translate(-5.15 -5.43)" fill="#3f3d56"/><path id="_3-2" data-name=" 3-2" d="M124.69,97a25.67,25.67,0,0,1-13.84-3.73c-12.85-8.12-25.19-.09-25.31,0l0,0A42.76,42.76,0,0,1,68.8,97,25.59,25.59,0,0,1,55,93.23c-12.85-8.12-25.18-.09-25.31,0l-.38-.58c.12-.08,12.84-8.36,26.07,0,12.68,8,29.2.3,29.84,0s13.08-8.18,26.05,0,29.7.07,29.86,0l.31.63A43,43,0,0,1,124.69,97Z" transform="translate(-5.15 -5.43)" fill="#3f3d56"/><path id="_2" data-name=" 2" d="M124.69,80.29a25.59,25.59,0,0,1-13.84-3.73c-12.85-8.12-25.19-.08-25.31,0l0,0A42.93,42.93,0,0,1,68.8,80.3,25.67,25.67,0,0,1,55,76.57c-12.85-8.12-25.18-.09-25.31,0L29.27,76c.12-.09,12.84-8.36,26.07,0,12.68,8,29.2.3,29.84,0s13.08-8.18,26.05,0,29.7.06,29.86,0l.31.62A42.62,42.62,0,0,1,124.69,80.29Z" transform="translate(-5.15 -5.43)" fill="#3f3d56"/><path id="_1" data-name=" 1" d="M124.69,63.63a25.67,25.67,0,0,1-13.84-3.73c-12.85-8.12-25.19-.09-25.31,0l0,0a42.76,42.76,0,0,1-16.7,3.71A25.59,25.59,0,0,1,55,59.9c-12.85-8.12-25.18-.08-25.31,0l-.38-.58c.12-.08,12.84-8.36,26.07,0,12.68,8,29.2.3,29.84,0s13.08-8.18,26.05,0,29.7.07,29.86,0l.31.62A43,43,0,0,1,124.69,63.63Z" transform="translate(-5.15 -5.43)" fill="#3f3d56"/></g><path id="checkbox" d="M103.4,179.72H70.77V157.5h25v.7H71.47V179h31.24V168.61h.69Z" transform="translate(-5.15 -5.43)" fill="#3f3d56"/><path id="circle" d="M25.64,33.22a4.17,4.17,0,1,1,4.16-4.16h0A4.16,4.16,0,0,1,25.64,33.22Zm0-7.64a3.48,3.48,0,1,0,3.47,3.48h0A3.48,3.48,0,0,0,25.64,25.58Z" transform="translate(-5.15 -5.43)" fill="#f7c91e"/><path id="check" d="M95.61,172.16l-8.26-11.41,2.25-1.63,6.32,8.73L120.11,143l2,1.94Z" transform="translate(-5.15 -5.43)" fill="#f7c91e"/><path id="leaf_black" data-name="leaf black" d="M25.56,206.58c2,7.28,8.71,11.79,8.71,11.79s3.56-7.3,1.59-14.58S27.14,192,27.14,192,23.59,199.3,25.56,206.58Z" transform="translate(-5.15 -5.43)" fill="#3f3d56"/><path id="leaf_yellow" data-name="leaf yellow" d="M28.45,205c5.4,5.26,6.07,13.34,6.07,13.34s-8.1-.44-13.5-5.7S15,199.32,15,199.32,23.05,199.76,28.45,205Z" transform="translate(-5.15 -5.43)" fill="#f7c91e"/></g><g id="_2-2" data-name=" 2-2"><path id="bg-5" d="M173.67,223.26H10.51V14.62s165.65-9.26,163.16,0S173.67,223.26,173.67,223.26Z" transform="translate(-5.15 -5.43)" fill="#f2f2f2"/><path id="outline-2" d="M174,223.61H10.15V14.27S58.39,11.88,94.25,11s59.38-.36,59.38-.36v.7s-23.68-.07-59.38.85S10.85,15,10.85,15v208H173.32V57.47H174Z" transform="translate(-5.15 -5.43)" fill="#3f3d56"/><g id="waves-2"><path id="_4-2" data-name=" 4-2" d="M77.07,118.65a3,3,0,0,1-.42,0c-2.28-.14-4.29-1.43-6-3.83s-3.48-3.58-5.38-3.56c-3.15,0-5.52,3.51-5.54,3.55l0,0c-.16.17-3.77,4.07-8.06,3.8-2.27-.14-4.29-1.43-6-3.84s-3.5-3.58-5.37-3.55c-3.16,0-5.52,3.51-5.55,3.55l-.57-.39c.1-.16,2.6-3.81,6.11-3.86,2.13,0,4.12,1.27,5.95,3.85,1.57,2.23,3.41,3.42,5.46,3.55,3.83.23,7.23-3.29,7.49-3.56s2.69-3.79,6.1-3.84h.06c2.1,0,4.08,1.3,5.89,3.85,1.57,2.23,3.41,3.42,5.46,3.55,4,.25,7.47-3.54,7.5-3.58l.51.47C84.55,115,81.17,118.65,77.07,118.65Z" transform="translate(-5.15 -5.43)" fill="#3f3d56"/><path id="_3-3" data-name=" 3-3" d="M129.69,102a25.67,25.67,0,0,1-13.84-3.73c-12.85-8.12-25.19-.09-25.31,0l0,0A42.76,42.76,0,0,1,73.8,102,25.59,25.59,0,0,1,60,98.23c-12.85-8.12-25.18-.09-25.31,0l-.38-.58c.12-.08,12.84-8.36,26.07,0,12.68,8,29.2.3,29.84,0s13.08-8.18,26.05,0,29.7.07,29.86,0l.31.63A43,43,0,0,1,129.69,102Z" transform="translate(-5.15 -5.43)" fill="#3f3d56"/><path id="_2-3" data-name=" 2-3" d="M129.69,85.29a25.59,25.59,0,0,1-13.84-3.73c-12.85-8.12-25.19-.08-25.31,0l0,0A42.93,42.93,0,0,1,73.8,85.3,25.67,25.67,0,0,1,60,81.57c-12.85-8.12-25.18-.09-25.31,0L34.27,81c.12-.09,12.84-8.36,26.07,0,12.68,8,29.2.3,29.84,0s13.08-8.18,26.05,0,29.7.06,29.86,0l.31.62A42.62,42.62,0,0,1,129.69,85.29Z" transform="translate(-5.15 -5.43)" fill="#3f3d56"/><path id="_1-2" data-name=" 1-2" d="M129.69,68.63a25.67,25.67,0,0,1-13.84-3.73c-12.85-8.12-25.19-.09-25.31,0l0,0a42.76,42.76,0,0,1-16.7,3.71A25.59,25.59,0,0,1,60,64.9c-12.85-8.12-25.18-.08-25.31,0l-.38-.58c.12-.08,12.84-8.36,26.07,0,12.68,8,29.2.3,29.84,0s13.08-8.18,26.05,0,29.7.07,29.86,0l.31.62A43,43,0,0,1,129.69,68.63Z" transform="translate(-5.15 -5.43)" fill="#3f3d56"/></g><path id="checkbox-2" d="M108.4,184.72H75.77V162.5h25v.7H76.47V184h31.24V173.61h.69Z" transform="translate(-5.15 -5.43)" fill="#3f3d56"/><path id="circle-2" d="M30.64,38.22a4.17,4.17,0,1,1,4.16-4.16h0A4.16,4.16,0,0,1,30.64,38.22Zm0-7.64a3.48,3.48,0,1,0,3.47,3.48h0A3.48,3.48,0,0,0,30.64,30.58Z" transform="translate(-5.15 -5.43)" fill="#f7c91e"/><path id="check-2" d="M100.61,177.16l-8.26-11.41,2.25-1.63,6.32,8.73L125.11,148l2,1.94Z" transform="translate(-5.15 -5.43)" fill="#f7c91e"/><path id="leaf_black-2" data-name="leaf black-2" d="M30.56,211.58c2,7.28,8.71,11.79,8.71,11.79s3.56-7.3,1.59-14.58S32.14,197,32.14,197,28.59,204.3,30.56,211.58Z" transform="translate(-5.15 -5.43)" fill="#3f3d56"/><path id="leaf_yellow-2" data-name="leaf yellow-2" d="M33.45,210c5.4,5.26,6.07,13.34,6.07,13.34s-8.1-.44-13.5-5.7S20,204.32,20,204.32,28.05,204.76,33.45,210Z" transform="translate(-5.15 -5.43)" fill="#f7c91e"/></g><g id="_1-3" data-name=" 1-3"><path id="bg-6" d="M177.67,228.26H14.51V19.62s165.65-9.26,163.16,0S177.67,228.26,177.67,228.26Z" transform="translate(-5.15 -5.43)" fill="#f2f2f2"/><path id="outline-3" d="M178,228.61H14.15V19.27S62.39,16.88,98.25,16s59.38-.36,59.38-.36v.7s-23.68-.07-59.38.85S14.85,20,14.85,20v208H177.32V62.47H178Z" transform="translate(-5.15 -5.43)" fill="#3f3d56"/><g id="waves-3"><path id="_4-3" data-name=" 4-3" d="M81.07,123.65a3,3,0,0,1-.42,0c-2.28-.14-4.29-1.43-6-3.83s-3.48-3.58-5.38-3.56c-3.15,0-5.52,3.51-5.54,3.55l0,0c-.16.17-3.77,4.07-8.06,3.8-2.27-.14-4.29-1.43-6-3.84s-3.5-3.58-5.37-3.55c-3.16,0-5.52,3.51-5.55,3.55l-.57-.39c.1-.16,2.6-3.81,6.11-3.86,2.13,0,4.12,1.27,5.95,3.85,1.57,2.23,3.41,3.42,5.46,3.55,3.83.23,7.23-3.29,7.49-3.56s2.69-3.79,6.1-3.84h.06c2.1,0,4.08,1.3,5.89,3.85,1.57,2.23,3.41,3.42,5.46,3.55,4,.25,7.47-3.54,7.5-3.58l.51.47C88.55,120,85.17,123.65,81.07,123.65Z" transform="translate(-5.15 -5.43)" fill="#3f3d56"/><path id="_3-4" data-name=" 3-4" d="M133.69,107a25.67,25.67,0,0,1-13.84-3.73c-12.85-8.12-25.19-.09-25.31,0l0,0A42.76,42.76,0,0,1,77.8,107,25.59,25.59,0,0,1,64,103.23c-12.85-8.12-25.18-.09-25.31,0l-.38-.58c.12-.08,12.84-8.36,26.07,0,12.68,8,29.2.3,29.84,0s13.08-8.18,26.05,0,29.7.07,29.86,0l.31.63A43,43,0,0,1,133.69,107Z" transform="translate(-5.15 -5.43)" fill="#3f3d56"/><path id="_2-4" data-name=" 2-4" d="M133.69,90.29a25.59,25.59,0,0,1-13.84-3.73c-12.85-8.12-25.19-.08-25.31,0l0,0A42.93,42.93,0,0,1,77.8,90.3,25.67,25.67,0,0,1,64,86.57c-12.85-8.12-25.18-.09-25.31,0L38.27,86c.12-.09,12.84-8.36,26.07,0,12.68,8,29.2.3,29.84,0s13.08-8.18,26.05,0,29.7.06,29.86,0l.31.62A42.62,42.62,0,0,1,133.69,90.29Z" transform="translate(-5.15 -5.43)" fill="#3f3d56"/><path id="_1-4" data-name=" 1-4" d="M133.69,73.63a25.67,25.67,0,0,1-13.84-3.73c-12.85-8.12-25.19-.09-25.31,0l0,0a42.76,42.76,0,0,1-16.7,3.71A25.59,25.59,0,0,1,64,69.9c-12.85-8.12-25.18-.08-25.31,0l-.38-.58c.12-.08,12.84-8.36,26.07,0,12.68,8,29.2.3,29.84,0s13.08-8.18,26.05,0,29.7.07,29.86,0l.31.62A43,43,0,0,1,133.69,73.63Z" transform="translate(-5.15 -5.43)" fill="#3f3d56"/></g><path id="checkbox-3" d="M112.4,189.72H79.77V167.5h25v.7H80.47V189h31.24V178.61h.69Z" transform="translate(-5.15 -5.43)" fill="#3f3d56"/><path id="circle-3" d="M34.64,43.22a4.17,4.17,0,1,1,4.16-4.16h0A4.16,4.16,0,0,1,34.64,43.22Zm0-7.64a3.48,3.48,0,1,0,3.47,3.48h0A3.48,3.48,0,0,0,34.64,35.58Z" transform="translate(-5.15 -5.43)" fill="#f7c91e"/><path id="check-3" d="M104.61,182.16l-8.26-11.41,2.25-1.63,6.32,8.73L129.11,153l2,1.94Z" transform="translate(-5.15 -5.43)" fill="#f7c91e"/><path id="leaf_black-3" data-name="leaf black-3" d="M34.56,216.58c2,7.28,8.71,11.79,8.71,11.79s3.56-7.3,1.59-14.58S36.14,202,36.14,202,32.59,209.3,34.56,216.58Z" transform="translate(-5.15 -5.43)" fill="#3f3d56"/><path id="leaf_yellow-3" data-name="leaf yellow-3" d="M37.45,215c5.4,5.26,6.07,13.34,6.07,13.34s-8.1-.44-13.5-5.7S24,209.32,24,209.32,32.05,209.76,37.45,215Z" transform="translate(-5.15 -5.43)" fill="#f7c91e"/></g><g id="woman"><path id="legs" d="M164.4,156.43l-13.19,34s-6.6,10.42-4.17,20.83,8,29.16,8,29.16,6.25-2.43,5.9-6.94,2.78-20.48-2.43-26.38l18.4-26,.69,27.42s-1.39,12.5-1,18.06,1,14.92,1,14.92l4.17-.69s7.29-25.69,6.6-34c0,0,13.19-40.62,0-50.34Z" transform="translate(-5.15 -5.43)" fill="#2f2e41"/><path id="shoe_left" data-name="shoe left" d="M156.07,238.71s-3.12,0-2.78,2.78-2.77,16.32,3.83,15.27,7.29-7.63,7.29-12.15.34-4.86,1-5.9,2.77-10.06,0-9.72a19.6,19.6,0,0,0-5.9,2.09S160.58,238.71,156.07,238.71Z" transform="translate(-5.15 -5.43)" fill="#292838"/><path id="shoe_right" data-name="shoe right" d="M179.68,238.71s-4.86-.69-4.52,1-.69,9,0,9.73,2.09,2.08,2.09,3.12.34,4.51,6.25,3.47,4.51-6.25,4.16-6.94-4.51-4.17-4.16-6.25S181.76,237.32,179.68,238.71Z" transform="translate(-5.15 -5.43)" fill="#292838"/><path id="neck" d="M166.49,111.65s4.16,10.76-3.47,10.76,11.8,10.76,19.44,4.52,3.12-6.6,3.12-6.6-10.07,1-9.72-8Z" transform="translate(-5.15 -5.43)" fill="#a0616a"/><path id="body" d="M180.2,119.46s3,5.94-6.13,6c-2.86,0-5.6-2.43-7.41-4.65-.64-.78-.91.82-2.08.69-3.13-.34-11.63.18-11.63,5.73s9.72,26.73,9,28.82-4.16,1.73,0,3.12,12.5-2.08,18.05.69,10.77-4.16,10.77-4.16l8.33-29.86S186.45,118.07,180.2,119.46Z" transform="translate(-5.15 -5.43)" fill="#575a89"/><path id="han_left" data-name="han left" d="M156.07,175.53s-8.68,6.94-4.86,9.37,8.33-9.37,8.33-9.37Z" transform="translate(-5.15 -5.43)" fill="#a0616a"/><path id="arm_left" data-name="arm left" d="M156.42,122.93h0a6.69,6.69,0,0,0-4.42,6.18l-.44,26.46s-2.08,21.52,3.13,21.52,9,1.74,9.72,0S162,159.73,162,159.73Z" transform="translate(-5.15 -5.43)" fill="#575a89"/><path id="hand_right" data-name="hand right" d="M189.4,150.53s-11.46,4.52-7.64,6.95,7.64-4.17,7.64-4.17Z" transform="translate(-5.15 -5.43)" fill="#a0616a"/><path id="arm_right" data-name="arm right" d="M192.52,124.84l6.6,1s18.4,9,14.24,15.28-21.87,15.27-21.87,15.27-6.6-3.12-4.52-5.2,11.46-9.38,11.46-9.38l-8-7.29Z" transform="translate(-5.15 -5.43)" fill="#575a89"/><circle id="hair" cx="166.03" cy="96.06" r="13.53" fill="#2f2e41"/><circle id="face" cx="166.19" cy="101.7" r="9.37" fill="#a0616a"/><path id="bangs" d="M180.11,99.93l-6.87-3.6-9.48,1.47-2,8.67,4.89-.19L168,103.1v3.13l2.26-.09,1.3-5.06.82,5.4,8-.17Z" transform="translate(-5.15 -5.43)" fill="#2f2e41"/><g id="bun"><circle id="bun-2" cx="166.74" cy="80.63" r="5.46" fill="#2f2e41"/><path id="strand" d="M165,84.4a5.45,5.45,0,0,1,4.63-5.4A5.46,5.46,0,1,0,168,89.8a5.57,5.57,0,0,0,1.63,0A5.45,5.45,0,0,1,165,84.4Z" transform="translate(-5.15 -5.43)" fill="#2f2e41"/></g></g></g></svg>